<?xml version="1.0" encoding="UTF-8"?>
<!DOCTYPE svg PUBLIC "-//W3C//DTD SVG 1.1//EN" "http://www.w3.org/Graphics/SVG/1.1/DTD/svg11.dtd">
<!-- Creator: CorelDRAW -->
<svg xmlns="http://www.w3.org/2000/svg" xml:space="preserve" width="227.614mm" height="103.654mm" version="1.1" style="shape-rendering:geometricPrecision; text-rendering:geometricPrecision; image-rendering:optimizeQuality; fill-rule:evenodd; clip-rule:evenodd"
viewBox="0 0 22761.36 10365.4"
 xmlns:xlink="http://www.w3.org/1999/xlink"
 xmlns:xodm="http://www.corel.com/coreldraw/odm/2003">
 <defs>
  <style type="text/css">
   <![CDATA[
    .fil4 {fill:#FCBB5A}
    .fil1 {fill:#04949C}
    .fil6 {fill:#0D5794}
    .fil3 {fill:#336699}
    .fil0 {fill:#573E96}
    .fil2 {fill:red}
    .fil5 {fill:black;fill-rule:nonzero}
   ]]>
  </style>
 </defs>
 <g id="Camada_x0020_1">
  <metadata id="CorelCorpID_0Corel-Layer"/>
  <g id="_2025574185536">
   <path class="fil0" d="M4761.5 5315.85c811.85,-139.42 1334.39,-148.28 587.24,1043.87 1059.27,-425.37 1180.4,-2202.16 -587.24,-1043.87z"/>
   <path class="fil0" d="M3832.2 4082.74c831.44,-178.34 1118.4,334.92 855.12,1110.71 627.94,-303.06 792.85,-750.38 689.68,-1089.25 325.68,64.7 1079.68,-179.01 1271.34,-1101.16 -1377.6,1408.32 -1777.32,-34.65 -2816.14,1079.7z"/>
   <path class="fil1" d="M959.51 4675.95c906.41,-136.01 1495.04,713.06 1200.97,1420.04 623.5,-744.92 554.48,-1151.32 27.02,-1585.54 74.7,-128.08 317.4,-303.55 541.44,-177.28 524.09,418.4 549.26,451.59 1312.51,232.99 -669.72,-126.37 -805.38,-227.69 -1121.56,-662.75 -141.23,-194.32 -195.06,-383.68 -477.93,-363.33 -379.78,27.32 -872.18,444.24 -1187.14,792.32 -87.1,96.25 -247,239.53 -295.31,343.55z"/>
   <path class="fil0" d="M5271.45 2596.71c256.79,0 464.96,208.17 464.96,464.96 0,256.79 -208.17,464.95 -464.96,464.95 -256.79,0 -464.96,-208.16 -464.96,-464.95 0,-256.79 208.17,-464.96 464.96,-464.96z"/>
   <path class="fil1" d="M3325.5 3026.33c256.79,0 464.95,208.17 464.95,464.95 0,256.79 -208.16,464.96 -464.95,464.96 -256.79,0 -464.95,-208.17 -464.95,-464.96 0,-256.78 208.16,-464.95 464.95,-464.95z"/>
   <path class="fil2" d="M5166.09 1794.15c393.86,0 716.09,322.35 716.09,716.11l0 921.44c209.59,-88.34 445.16,-263.32 720.25,-536.22l0 -516.15c0,-789.99 -646.35,-1436.33 -1436.34,-1436.33 -147.07,0 -289.19,22.4 -423.06,63.97 86.44,184.32 134.82,389.71 134.82,605.82l0 242.29c88.31,-39.15 185.86,-60.93 288.24,-60.93z"/>
   <path class="fil3" d="M4740.99 3483.55l0 -1870.76c0,-789.99 -646.34,-1436.33 -1436.33,-1436.33 -789.99,0 -1436.35,646.44 -1436.35,1436.33l0 2035.15c196.12,-135.08 397.06,-232.02 573.65,-244.72 57.43,-4.14 105.41,0.38 146.61,11.81l0 -1671.31c0,-393.85 322.23,-716.1 716.09,-716.1 393.86,0 716.09,322.34 716.09,716.1l0 2021.14c270.44,-228.29 498.65,-282.36 720.24,-281.31z"/>
   <path class="fil4" d="M889.09 4690.32l0 -300.94 0 -1879.12c0,-393.86 322.23,-716.11 716.09,-716.11 43.06,0 85.25,3.85 126.27,11.24l0 -192.6c0,-230.53 55.06,-448.83 152.65,-642.43 -90.29,-17.94 -183.56,-27.36 -278.92,-27.36 -790,0 -1436.35,646.43 -1436.35,1436.33l0 2089.1 0 792.08c201.71,-381.17 455.13,-493.49 720.26,-570.19z"/>
   <path class="fil1" d="M4572.46 5713.38c0,-508 -424.45,-919.82 -948.02,-919.82 -245.46,0 -469.12,90.5 -637.49,238.99 108.88,-54.88 232.59,-85.88 363.76,-85.88 436.43,0 790.24,343.28 790.24,766.71 0,423.44 -353.81,766.73 -790.24,766.73 -131.15,0 -254.86,-31 -363.72,-85.86 168.35,148.47 392.01,238.96 637.45,238.96 523.57,0 948.02,-411.82 948.02,-919.83z"/>
   <path class="fil1" d="M1422.37 6480.11c-436.43,0 -790.25,-343.29 -790.25,-766.73 0,-423.43 353.82,-766.71 790.25,-766.71 131.16,0 254.87,31 363.75,85.88 -168.37,-148.49 -392.03,-238.99 -637.47,-238.99 -523.59,0 -948.04,411.82 -948.04,919.82 0,508.01 424.45,919.83 948.04,919.83 245.42,0 469.07,-90.49 637.43,-238.96 -108.86,54.86 -232.55,85.86 -363.71,85.86z"/>
   <path class="fil5" d="M8229.16 4725.59c-141.59,-83.43 -292.66,-151.69 -453.2,-204.79 -160.55,-53.09 -295.18,-79.64 -403.9,-79.64 -85.96,0 -153.6,15.8 -202.9,47.41 -49.3,31.6 -73.95,77.74 -73.95,138.42 0,58.15 21.49,106.82 64.47,146.01 42.98,39.19 96.08,70.79 159.28,94.81 63.21,24.02 156.76,54.99 280.65,92.92 184.56,53.09 336.89,106.19 456.99,159.28 120.09,53.09 223.12,134.63 309.08,244.61 85.97,109.99 128.95,253.47 128.95,430.45 0,176.98 -46.78,328.05 -140.32,453.2 -93.55,125.15 -221.86,219.33 -384.94,282.54 -163.07,63.2 -344.48,94.81 -544.22,94.81 -219.96,0 -439.29,-38.56 -657.99,-115.67 -218.7,-77.12 -407.69,-182.67 -566.97,-316.67l269.26 -542.33c134,118.84 292.66,216.18 475.96,292.02 183.3,75.85 345.74,113.78 487.33,113.78 103.66,0 185.2,-18.96 244.61,-56.89 59.42,-37.92 89.13,-93.55 89.13,-166.87 0,-60.68 -22.13,-111.24 -66.37,-151.7 -44.25,-40.45 -99.87,-72.68 -166.87,-96.7 -67,-24.02 -161.18,-52.47 -282.54,-85.33 -182.04,-50.57 -332.47,-101.77 -451.3,-153.6 -118.83,-51.83 -220.6,-130.21 -305.3,-235.13 -84.69,-104.93 -127.04,-244.61 -127.04,-419.07 0,-164.34 43.61,-308.45 130.84,-432.34 87.22,-123.88 211.11,-219.33 371.66,-286.33 160.55,-67 347.01,-100.5 559.39,-100.5 192.15,0 381.77,27.18 568.87,81.54 187.09,54.36 351.43,127.05 493.02,218.07l-261.68 553.69zm618.17 -800.2l694.02 0 0 2658.51 -694.02 0 0 -2658.51zm2377.86 0c338.8,0 601.74,81.53 788.84,244.61 187.09,163.08 280.64,392.52 280.64,688.33 0,313.51 -93.55,556.86 -280.64,730.05 -187.1,173.19 -450.04,259.78 -788.84,259.78l-474.05 0 0 735.74 -694.02 0 0 -2658.51 1168.07 0zm-34.13 1369.07c141.59,0 250.94,-35.39 328.05,-106.19 77.11,-70.79 115.67,-173.18 115.67,-307.18 0,-128.95 -38.56,-228.18 -115.67,-297.71 -77.11,-69.53 -186.46,-104.3 -328.05,-104.3l-439.92 0 0 815.38 439.92 0zm3398.04 1289.44l-182.03 -470.27 -1149.12 0 -185.83 470.27 -712.98 0 1141.53 -2658.51 712.98 0 1114.98 2658.51 -739.53 0zm-1122.56 -1001.21l735.73 0 -364.07 -948.11 -371.66 948.11zm2101.02 -1657.3l1987.25 0 -3.8 553.69 -1289.43 0 0 591.63 1190.83 0 0 553.7 -1190.83 0 0 959.49 -694.02 0 0 -2658.51zm4224.79 902.6c-85.96,-108.72 -188.35,-195.31 -307.18,-259.78 -118.84,-64.47 -236.4,-96.71 -352.7,-96.71 -134,0 -255.99,33.5 -365.98,100.5 -109.98,67 -196.57,159.28 -259.78,276.85 -63.21,117.57 -94.81,248.41 -94.81,392.52 0,144.11 31.6,274.95 94.81,392.52 63.21,117.57 149.8,209.85 259.78,276.85 109.99,67 231.98,100.5 365.98,100.5 108.71,0 222.49,-27.81 341.32,-83.44 118.83,-55.62 225.02,-131.47 318.56,-227.54l405.8 436.13c-144.12,151.7 -315.41,272.42 -513.88,362.18 -198.47,89.75 -395.05,134.63 -589.73,134.63 -262.94,0 -500.6,-60.68 -712.98,-182.04 -212.38,-121.35 -379.25,-286.96 -500.61,-496.81 -121.35,-209.85 -182.03,-444.98 -182.03,-705.4 0,-257.88 61.94,-490.49 185.83,-697.81 123.88,-207.32 293.91,-370.4 510.08,-489.23 216.17,-118.83 458.26,-178.24 726.26,-178.24 197.21,0 391.89,41.08 584.04,123.25 192.15,82.17 355.22,194.05 489.23,335.64l-402.01 485.43zm2533.37 -102.4c-141.59,-83.43 -292.66,-151.69 -453.2,-204.79 -160.55,-53.09 -295.18,-79.64 -403.9,-79.64 -85.96,0 -153.6,15.8 -202.9,47.41 -49.3,31.6 -73.95,77.74 -73.95,138.42 0,58.15 21.49,106.82 64.47,146.01 42.98,39.19 96.08,70.79 159.28,94.81 63.21,24.02 156.76,54.99 280.65,92.92 184.56,53.09 336.89,106.19 456.99,159.28 120.09,53.09 223.12,134.63 309.08,244.61 85.97,109.99 128.95,253.47 128.95,430.45 0,176.98 -46.78,328.05 -140.32,453.2 -93.55,125.15 -221.86,219.33 -384.94,282.54 -163.07,63.2 -344.48,94.81 -544.22,94.81 -219.96,0 -439.29,-38.56 -657.99,-115.67 -218.7,-77.12 -407.69,-182.67 -566.97,-316.67l269.26 -542.33c134,118.84 292.66,216.18 475.96,292.02 183.3,75.85 345.74,113.78 487.33,113.78 103.66,0 185.2,-18.96 244.61,-56.89 59.42,-37.92 89.13,-93.55 89.13,-166.87 0,-60.68 -22.13,-111.24 -66.37,-151.7 -44.25,-40.45 -99.87,-72.68 -166.87,-96.7 -67,-24.02 -161.18,-52.47 -282.54,-85.33 -182.04,-50.57 -332.47,-101.77 -451.3,-153.6 -118.83,-51.83 -220.6,-130.21 -305.3,-235.13 -84.69,-104.93 -127.04,-244.61 -127.04,-419.07 0,-164.34 43.61,-308.45 130.84,-432.34 87.22,-123.88 211.11,-219.33 371.66,-286.33 160.55,-67 347.01,-100.5 559.39,-100.5 192.15,0 381.77,27.18 568.87,81.54 187.09,54.36 351.43,127.05 493.02,218.07l-261.68 553.69z"/>
   <path class="fil6" d="M22534.32 6976.88l-22308.34 0c-31.45,0 -57.19,25.73 -57.19,57.18l0 0c0,31.45 25.74,57.18 57.19,57.18l22308.34 0c31.44,0 57.18,-25.73 57.18,-57.18l0 0c0,-31.45 -25.74,-57.18 -57.18,-57.18z"/>
   <g>
    <path class="fil5" d="M168.86 7398.92l149.66 0 0 573.27 -149.66 0 0 -573.27zm260.88 0l149.66 0 0 573.27 -149.66 0 0 -573.27zm837.42 172.55c-30.53,-17.99 -63.1,-32.71 -97.72,-44.16 -34.62,-11.45 -63.65,-17.17 -87.1,-17.17 -18.53,0 -33.12,3.41 -43.75,10.22 -10.63,6.82 -15.95,16.77 -15.95,29.85 0,12.54 4.64,23.03 13.91,31.49 9.26,8.45 20.71,15.26 34.34,20.44 13.63,5.18 33.8,11.86 60.52,20.04 39.8,11.44 72.65,22.89 98.54,34.34 25.9,11.45 48.12,29.03 66.65,52.75 18.54,23.72 27.81,54.66 27.81,92.82 0,38.16 -10.09,70.74 -30.26,97.73 -20.17,26.98 -47.84,47.29 -83.01,60.92 -35.16,13.63 -74.28,20.45 -117.35,20.45 -47.43,0 -94.73,-8.32 -141.89,-24.95 -47.15,-16.63 -87.91,-39.39 -122.26,-68.28l58.07 -116.95c28.89,25.63 63.1,46.62 102.63,62.97 39.53,16.36 74.56,24.54 105.09,24.54 22.35,0 39.93,-4.09 52.74,-12.27 12.82,-8.18 19.22,-20.17 19.22,-35.98 0,-13.09 -4.77,-23.99 -14.31,-32.71 -9.54,-8.73 -21.53,-15.68 -35.98,-20.86 -14.45,-5.18 -34.76,-11.31 -60.93,-18.4 -39.25,-10.9 -71.69,-21.94 -97.31,-33.12 -25.63,-11.17 -47.57,-28.08 -65.84,-50.7 -18.26,-22.63 -27.39,-52.75 -27.39,-90.37 0,-35.43 9.4,-66.51 28.21,-93.23 18.81,-26.71 45.52,-47.29 80.14,-61.74 34.62,-14.45 74.83,-21.67 120.63,-21.67 41.43,0 82.32,5.86 122.67,17.58 40.34,11.72 75.78,27.4 106.31,47.03l-56.43 119.39zm133.3 -172.55l149.66 0 0 573.27 -149.66 0 0 -573.27zm260.88 0l162.74 0 166.01 335.29 165.19 -335.29 162.75 0 0 573.27 -132.49 0 -0.81 -363.1 -146.39 305.85 -96.5 0 -147.2 -305.85 0 363.1 -133.3 0 0 -573.27zm1019.78 0c73.05,0 129.76,17.58 170.1,52.75 40.34,35.16 60.52,84.64 60.52,148.43 0,67.6 -20.18,120.07 -60.52,157.42 -40.34,37.35 -97.05,56.02 -170.1,56.02l-102.22 0 0 158.65 -149.66 0 0 -573.27 251.88 0zm-7.36 295.22c30.53,0 54.11,-7.63 70.74,-22.9 16.63,-15.26 24.94,-37.34 24.94,-66.24 0,-27.8 -8.31,-49.2 -24.94,-64.19 -16.63,-15 -40.21,-22.49 -70.74,-22.49l-94.86 0 0 175.82 94.86 0zm584.72 -304.22c58.34,0 111.08,12.82 158.24,38.44 47.16,25.62 84.24,60.79 111.22,105.49 26.99,44.71 40.48,94.87 40.48,150.48 0,56.15 -13.49,106.86 -40.48,152.11 -26.98,45.25 -64.06,80.96 -111.22,107.13 -47.16,26.17 -99.9,39.25 -158.24,39.25 -58.33,0 -111.08,-12.95 -158.24,-38.84 -47.16,-25.9 -84.23,-61.61 -111.22,-107.13 -26.99,-45.53 -40.48,-96.37 -40.48,-152.52 0,-55.61 13.49,-105.77 40.48,-150.48 26.99,-44.7 64.06,-79.87 111.22,-105.49 47.16,-25.62 99.91,-38.44 158.24,-38.44zm1.64 126.76c-28.35,0 -54.66,7.36 -78.92,22.08 -24.26,14.72 -43.48,35.03 -57.65,60.93 -14.18,25.89 -21.27,54.38 -21.27,85.46 0,31.62 7.23,60.38 21.68,86.27 14.44,25.9 33.66,46.34 57.65,61.34 23.99,14.99 50.16,22.49 78.51,22.49 28.35,0 54.38,-7.5 78.1,-22.49 23.71,-15 42.38,-35.44 56.01,-61.34 13.63,-25.89 20.45,-54.65 20.45,-86.27 0,-31.08 -6.82,-59.57 -20.45,-85.46 -13.63,-25.9 -32.3,-46.21 -56.01,-60.93 -23.72,-14.72 -49.75,-22.08 -78.1,-22.08zm22.9 -298.49l120.21 45.79 -118.58 94.05 -99.77 -8.18 98.14 -131.66zm754.81 353.28c-30.53,-17.99 -63.1,-32.71 -97.72,-44.16 -34.62,-11.45 -63.65,-17.17 -87.1,-17.17 -18.53,0 -33.12,3.41 -43.75,10.22 -10.63,6.82 -15.95,16.77 -15.95,29.85 0,12.54 4.64,23.03 13.91,31.49 9.26,8.45 20.71,15.26 34.34,20.44 13.63,5.18 33.8,11.86 60.52,20.04 39.8,11.44 72.65,22.89 98.54,34.34 25.9,11.45 48.12,29.03 66.65,52.75 18.54,23.72 27.81,54.66 27.81,92.82 0,38.16 -10.09,70.74 -30.26,97.73 -20.17,26.98 -47.84,47.29 -83.01,60.92 -35.16,13.63 -74.28,20.45 -117.35,20.45 -47.43,0 -94.73,-8.32 -141.89,-24.95 -47.15,-16.63 -87.91,-39.39 -122.26,-68.28l58.07 -116.95c28.89,25.63 63.1,46.62 102.63,62.97 39.53,16.36 74.56,24.54 105.09,24.54 22.35,0 39.93,-4.09 52.74,-12.27 12.82,-8.18 19.22,-20.17 19.22,-35.98 0,-13.09 -4.77,-23.99 -14.31,-32.71 -9.54,-8.73 -21.53,-15.68 -35.98,-20.86 -14.45,-5.18 -34.76,-11.31 -60.93,-18.4 -39.25,-10.9 -71.69,-21.94 -97.31,-33.12 -25.63,-11.17 -47.57,-28.08 -65.84,-50.7 -18.26,-22.63 -27.39,-52.75 -27.39,-90.37 0,-35.43 9.4,-66.51 28.21,-93.23 18.81,-26.71 45.52,-47.29 80.14,-61.74 34.62,-14.45 74.83,-21.67 120.63,-21.67 41.43,0 82.32,5.86 122.67,17.58 40.34,11.72 75.78,27.4 106.31,47.03l-56.43 119.39zm133.3 -172.55l149.66 0 0 573.27 -149.66 0 0 -573.27zm534.02 -9c58.34,0 111.08,12.82 158.24,38.44 47.16,25.62 84.24,60.79 111.22,105.49 26.99,44.71 40.48,94.87 40.48,150.48 0,56.15 -13.49,106.86 -40.48,152.11 -26.98,45.25 -64.06,80.96 -111.22,107.13 -47.16,26.17 -99.9,39.25 -158.24,39.25 -58.33,0 -111.08,-12.95 -158.24,-38.84 -47.16,-25.9 -84.23,-61.61 -111.22,-107.13 -26.99,-45.53 -40.48,-96.37 -40.48,-152.52 0,-55.61 13.49,-105.77 40.48,-150.48 26.99,-44.7 64.06,-79.87 111.22,-105.49 47.16,-25.62 99.91,-38.44 158.24,-38.44zm1.64 126.76c-28.35,0 -54.66,7.36 -78.92,22.08 -24.26,14.72 -43.48,35.03 -57.65,60.93 -14.18,25.89 -21.27,54.38 -21.27,85.46 0,31.62 7.23,60.38 21.68,86.27 14.44,25.9 33.66,46.34 57.65,61.34 23.99,14.99 50.16,22.49 78.51,22.49 28.35,0 54.38,-7.5 78.1,-22.49 23.71,-15 42.38,-35.44 56.01,-61.34 13.63,-25.89 20.45,-54.65 20.45,-86.27 0,-31.08 -6.82,-59.57 -20.45,-85.46 -13.63,-25.9 -32.3,-46.21 -56.01,-60.93 -23.72,-14.72 -49.75,-22.08 -78.1,-22.08zm564.27 -117.76l149.66 0 0 573.27 -149.66 0 0 -573.27zm652.6 0l139.03 0 0 573.27 -130.85 0 -260.06 -342.65 0 342.65 -139.84 0 0 -573.27 131.66 0 260.88 345.11 -0.82 -345.11zm201.17 0l491.5 0 0 123.49 -171.74 0 0 449.78 -149.66 0 0 -449.78 -170.1 0 0 -123.49zm552.01 0l452.24 0 0 119.4 -302.58 0 0 107.13 273.14 0 0 118.58 -273.14 0.81 0 107.95 310.76 0 0 119.4 -460.42 0 0 -573.27zm896.3 573.27l-83.42 -158.65 -3.27 0 -107.94 0 0 158.65 -149.66 0 0 -573.27 257.6 0c75.79,0 134.53,17.58 176.24,52.75 41.7,35.16 62.56,84.64 62.56,148.43 0,43.07 -8.72,80.28 -26.17,111.62 -17.45,31.35 -42.8,55.75 -76.06,73.2l119.4 187.27 -169.28 0zm-194.63 -278.05l108.76 0c30.53,0 54.11,-7.63 70.74,-22.9 16.63,-15.26 24.94,-37.34 24.94,-66.24 0,-27.8 -8.31,-49.2 -24.94,-64.19 -16.63,-15 -40.21,-22.49 -70.74,-22.49l-108.76 0 0 175.82zm834.14 -295.22l139.03 0 0 573.27 -130.85 0 -260.06 -342.65 0 342.65 -139.84 0 0 -573.27 131.66 0 260.88 345.11 -0.82 -345.11zm672.22 573.27l-39.25 -101.41 -247.79 0 -40.07 101.41 -153.75 0 246.16 -573.27 153.74 0 240.43 573.27 -159.47 0zm-242.06 -215.9l158.65 0 -78.51 -204.44 -80.14 204.44zm867.67 -162.74c-18.54,-23.44 -40.62,-42.11 -66.24,-56.02 -25.63,-13.9 -50.98,-20.85 -76.06,-20.85 -28.89,0 -55.2,7.22 -78.91,21.67 -23.72,14.45 -42.39,34.35 -56.02,59.7 -13.63,25.35 -20.45,53.57 -20.45,84.64 0,31.08 6.82,59.29 20.45,84.64 13.63,25.36 32.3,45.25 56.02,59.7 23.71,14.45 50.02,21.67 78.91,21.67 23.45,0 47.98,-5.99 73.6,-17.99 25.63,-11.99 48.53,-28.35 68.7,-49.07l87.5 94.05c-31.07,32.71 -68.01,58.75 -110.81,78.1 -42.8,19.35 -85.18,29.03 -127.16,29.03 -56.7,0 -107.95,-13.08 -153.75,-39.25 -45.79,-26.17 -81.78,-61.88 -107.95,-107.13 -26.17,-45.25 -39.25,-95.96 -39.25,-152.11 0,-55.61 13.36,-105.77 40.07,-150.48 26.72,-44.7 63.38,-79.87 109.99,-105.49 46.62,-25.62 98.82,-38.44 156.61,-38.44 42.53,0 84.51,8.86 125.94,26.58 41.43,17.72 76.6,41.85 105.49,72.38l-86.68 104.67zm151.29 -194.63l149.66 0 0 573.27 -149.66 0 0 -573.27zm534.02 -9c58.34,0 111.08,12.82 158.24,38.44 47.16,25.62 84.24,60.79 111.22,105.49 26.99,44.71 40.48,94.87 40.48,150.48 0,56.15 -13.49,106.86 -40.48,152.11 -26.98,45.25 -64.06,80.96 -111.22,107.13 -47.16,26.17 -99.9,39.25 -158.24,39.25 -58.33,0 -111.08,-12.95 -158.24,-38.84 -47.16,-25.9 -84.23,-61.61 -111.22,-107.13 -26.99,-45.53 -40.48,-96.37 -40.48,-152.52 0,-55.61 13.49,-105.77 40.48,-150.48 26.99,-44.7 64.06,-79.87 111.22,-105.49 47.16,-25.62 99.91,-38.44 158.24,-38.44zm1.64 126.76c-28.35,0 -54.66,7.36 -78.92,22.08 -24.26,14.72 -43.48,35.03 -57.65,60.93 -14.18,25.89 -21.27,54.38 -21.27,85.46 0,31.62 7.23,60.38 21.68,86.27 14.44,25.9 33.66,46.34 57.65,61.34 23.99,14.99 50.16,22.49 78.51,22.49 28.35,0 54.38,-7.5 78.1,-22.49 23.71,-15 42.38,-35.44 56.01,-61.34 13.63,-25.89 20.45,-54.65 20.45,-86.27 0,-31.08 -6.82,-59.57 -20.45,-85.46 -13.63,-25.9 -32.3,-46.21 -56.01,-60.93 -23.72,-14.72 -49.75,-22.08 -78.1,-22.08zm774.44 -117.76l139.03 0 0 573.27 -130.85 0 -260.06 -342.65 0 342.65 -139.84 0 0 -573.27 131.66 0 260.88 345.11 -0.82 -345.11zm672.22 573.27l-39.25 -101.41 -247.79 0 -40.07 101.41 -153.75 0 246.16 -573.27 153.74 0 240.43 573.27 -159.47 0zm-242.06 -215.9l158.65 0 -78.51 -204.44 -80.14 204.44zm453.05 -357.37l149.66 0 0 445.69 242.88 0 0 127.58 -392.54 0 0 -573.27zm888.94 0c59.97,0 112.99,11.99 159.06,35.98 46.07,23.99 81.92,57.66 107.54,101 25.63,43.34 38.44,93.09 38.44,149.25 0,56.15 -12.95,106.04 -38.85,149.65 -25.89,43.62 -62.42,77.42 -109.58,101.41 -47.16,23.99 -101.27,35.98 -162.33,35.98l-241.25 0 0 -573.27 246.97 0zm4.09 452.24c28.9,0 54.52,-6.82 76.87,-20.45 22.36,-13.63 39.8,-32.98 52.34,-58.06 12.54,-25.08 18.81,-53.7 18.81,-85.87 0,-32.71 -6.68,-61.61 -20.03,-86.68 -13.36,-25.08 -31.76,-44.57 -55.21,-58.48 -23.44,-13.9 -50.15,-20.85 -80.14,-20.85l-94.04 0 0 330.39 101.4 0zm375.37 -452.24l452.24 0 0 119.4 -302.58 0 0 107.13 273.14 0 0 118.58 -273.14 0.81 0 107.95 310.76 0 0 119.4 -460.42 0 0 -573.27zm985.44 0c73.05,0 129.76,17.58 170.1,52.75 40.34,35.16 60.52,84.64 60.52,148.43 0,67.6 -20.18,120.07 -60.52,157.42 -40.34,37.35 -97.05,56.02 -170.1,56.02l-102.22 0 0 158.65 -149.66 0 0 -573.27 251.88 0zm-7.36 295.22c30.53,0 54.11,-7.63 70.74,-22.9 16.63,-15.26 24.94,-37.34 24.94,-66.24 0,-27.8 -8.31,-49.2 -24.94,-64.19 -16.63,-15 -40.21,-22.49 -70.74,-22.49l-94.86 0 0 175.82 94.86 0zm584.72 -304.22c58.34,0 111.08,12.82 158.24,38.44 47.16,25.62 84.24,60.79 111.22,105.49 26.99,44.71 40.48,94.87 40.48,150.48 0,56.15 -13.49,106.86 -40.48,152.11 -26.98,45.25 -64.06,80.96 -111.22,107.13 -47.16,26.17 -99.9,39.25 -158.24,39.25 -58.33,0 -111.08,-12.95 -158.24,-38.84 -47.16,-25.9 -84.23,-61.61 -111.22,-107.13 -26.99,-45.53 -40.48,-96.37 -40.48,-152.52 0,-55.61 13.49,-105.77 40.48,-150.48 26.99,-44.7 64.06,-79.87 111.22,-105.49 47.16,-25.62 99.91,-38.44 158.24,-38.44zm1.64 126.76c-28.35,0 -54.66,7.36 -78.92,22.08 -24.26,14.72 -43.48,35.03 -57.65,60.93 -14.18,25.89 -21.27,54.38 -21.27,85.46 0,31.62 7.23,60.38 21.68,86.27 14.44,25.9 33.66,46.34 57.65,61.34 23.99,14.99 50.16,22.49 78.51,22.49 28.35,0 54.38,-7.5 78.1,-22.49 23.71,-15 42.38,-35.44 56.01,-61.34 13.63,-25.89 20.45,-54.65 20.45,-86.27 0,-31.08 -6.82,-59.57 -20.45,-85.46 -13.63,-25.9 -32.3,-46.21 -56.01,-60.93 -23.72,-14.72 -49.75,-22.08 -78.1,-22.08zm382.72 -117.76l149.66 0 0 445.69 242.88 0 0 127.58 -392.54 0 0 -573.27zm460.42 0l149.66 0 0 573.27 -149.66 0 0 -573.27zm99.77 -180.73l120.22 45.79 -118.58 94.05 -99.77 -8.18 98.13 -131.66zm111.22 180.73l491.5 0 0 123.49 -171.74 0 0 449.78 -149.66 0 0 -449.78 -170.1 0 0 -123.49zm552.01 0l149.66 0 0 573.27 -149.66 0 0 -573.27zm675.5 194.63c-18.54,-23.44 -40.62,-42.11 -66.24,-56.02 -25.63,-13.9 -50.98,-20.85 -76.06,-20.85 -28.89,0 -55.2,7.22 -78.91,21.67 -23.72,14.45 -42.39,34.35 -56.02,59.7 -13.63,25.35 -20.45,53.57 -20.45,84.64 0,31.08 6.82,59.29 20.45,84.64 13.63,25.36 32.3,45.25 56.02,59.7 23.71,14.45 50.02,21.67 78.91,21.67 23.45,0 47.98,-5.99 73.6,-17.99 25.63,-11.99 48.53,-28.35 68.7,-49.07l87.5 94.05c-31.07,32.71 -68.01,58.75 -110.81,78.1 -42.8,19.35 -85.18,29.03 -127.16,29.03 -56.7,0 -107.95,-13.08 -153.75,-39.25 -45.79,-26.17 -81.78,-61.88 -107.95,-107.13 -26.17,-45.25 -39.25,-95.96 -39.25,-152.11 0,-55.61 13.36,-105.77 40.07,-150.48 26.72,-44.7 63.38,-79.87 109.99,-105.49 46.62,-25.62 98.82,-38.44 156.61,-38.44 42.53,0 84.51,8.86 125.94,26.58 41.43,17.72 76.6,41.85 105.49,72.38l-86.68 104.67zm572.45 378.64l-39.25 -101.41 -247.79 0 -40.07 101.41 -153.75 0 246.16 -573.27 153.74 0 240.43 573.27 -159.47 0zm-242.06 -215.9l158.65 0 -78.51 -204.44 -80.14 204.44zm848.04 -184.82c-30.53,-17.99 -63.1,-32.71 -97.72,-44.16 -34.62,-11.45 -63.65,-17.17 -87.1,-17.17 -18.53,0 -33.12,3.41 -43.75,10.22 -10.63,6.82 -15.95,16.77 -15.95,29.85 0,12.54 4.64,23.03 13.91,31.49 9.26,8.45 20.71,15.26 34.34,20.44 13.63,5.18 33.8,11.86 60.52,20.04 39.8,11.44 72.65,22.89 98.54,34.34 25.9,11.45 48.12,29.03 66.65,52.75 18.54,23.72 27.81,54.66 27.81,92.82 0,38.16 -10.09,70.74 -30.26,97.73 -20.17,26.98 -47.84,47.29 -83.01,60.92 -35.16,13.63 -74.28,20.45 -117.35,20.45 -47.43,0 -94.73,-8.32 -141.89,-24.95 -47.15,-16.63 -87.91,-39.39 -122.26,-68.28l58.07 -116.95c28.89,25.63 63.1,46.62 102.63,62.97 39.53,16.36 74.56,24.54 105.09,24.54 22.35,0 39.93,-4.09 52.74,-12.27 12.82,-8.18 19.22,-20.17 19.22,-35.98 0,-13.09 -4.77,-23.99 -14.31,-32.71 -9.54,-8.73 -21.53,-15.68 -35.98,-20.86 -14.45,-5.18 -34.76,-11.31 -60.93,-18.4 -39.25,-10.9 -71.69,-21.94 -97.31,-33.12 -25.63,-11.17 -47.57,-28.08 -65.84,-50.7 -18.26,-22.63 -27.39,-52.75 -27.39,-90.37 0,-35.43 9.4,-66.51 28.21,-93.23 18.81,-26.71 45.52,-47.29 80.14,-61.74 34.62,-14.45 74.83,-21.67 120.63,-21.67 41.43,0 82.32,5.86 122.67,17.58 40.34,11.72 75.78,27.4 106.31,47.03l-56.43 119.39zm566.73 -172.55c73.05,0 129.76,17.58 170.1,52.75 40.34,35.16 60.52,84.64 60.52,148.43 0,67.6 -20.18,120.07 -60.52,157.42 -40.34,37.35 -97.05,56.02 -170.1,56.02l-102.22 0 0 158.65 -149.66 0 0 -573.27 251.88 0zm-7.36 295.22c30.53,0 54.11,-7.63 70.74,-22.9 16.63,-15.26 24.94,-37.34 24.94,-66.24 0,-27.8 -8.31,-49.2 -24.94,-64.19 -16.63,-15 -40.21,-22.49 -70.74,-22.49l-94.86 0 0 175.82 94.86 0zm451.42 41.71c0,35.98 10.63,64.88 31.9,86.68 21.26,21.81 48.25,32.72 80.96,32.72 32.16,0 58.2,-10.77 78.1,-32.31 19.9,-21.53 29.85,-50.56 29.85,-87.09l0 -336.93 149.65 0 0 336.93c0,49.61 -10.49,93.09 -31.48,130.44 -20.99,37.34 -50.98,66.1 -89.96,86.27 -38.98,20.18 -84.64,30.26 -136.98,30.26 -52.34,0 -98.27,-10.08 -137.8,-30.26 -39.53,-20.17 -70.06,-48.93 -91.59,-86.27 -21.54,-37.35 -32.3,-80.83 -32.3,-130.44l0 -336.93 149.65 0 0 336.93zm135.75 -517.66l120.22 45.79 -118.58 94.05 -99.77 -8.18 98.13 -131.66zm609.25 180.73c43.07,0 80.56,5.86 112.45,17.58 31.89,11.72 56.56,28.49 74.01,50.3 17.45,21.8 26.17,47.43 26.17,76.87 0,29.98 -8.86,56.15 -26.58,78.51 -17.72,22.35 -41.84,37.61 -72.37,45.79 36.52,7.09 65.28,23.72 86.27,49.89 20.99,26.17 31.49,57.79 31.49,94.86 0,32.17 -9,60.38 -26.99,84.64 -17.99,24.26 -43.61,42.8 -76.87,55.61 -33.26,12.81 -72.24,19.22 -116.94,19.22l-282.96 0 0 -573.27 272.32 0zm-8.17 228.16c20.71,0 37.07,-5.04 49.06,-15.13 12,-10.08 17.99,-24.12 17.99,-42.11 0,-17.45 -5.99,-30.94 -17.99,-40.48 -11.99,-9.54 -28.35,-14.04 -49.06,-13.5l-114.49 0 0 111.22 114.49 0zm0 228.98c26.17,0 46.88,-5.45 62.15,-16.35 15.26,-10.91 22.9,-26.17 22.9,-45.8 0,-17.99 -7.64,-32.3 -22.9,-42.93 -15.27,-10.63 -35.98,-15.68 -62.15,-15.13l-114.49 0 0 120.21 114.49 0zm321.39 -457.14l149.66 0 0 445.69 242.88 0 0 127.58 -392.54 0 0 -573.27zm460.42 0l149.66 0 0 573.27 -149.66 0 0 -573.27zm675.5 194.63c-18.54,-23.44 -40.62,-42.11 -66.24,-56.02 -25.63,-13.9 -50.98,-20.85 -76.06,-20.85 -28.89,0 -55.2,7.22 -78.91,21.67 -23.72,14.45 -42.39,34.35 -56.02,59.7 -13.63,25.35 -20.45,53.57 -20.45,84.64 0,31.08 6.82,59.29 20.45,84.64 13.63,25.36 32.3,45.25 56.02,59.7 23.71,14.45 50.02,21.67 78.91,21.67 23.45,0 47.98,-5.99 73.6,-17.99 25.63,-11.99 48.53,-28.35 68.7,-49.07l87.5 94.05c-31.07,32.71 -68.01,58.75 -110.81,78.1 -42.8,19.35 -85.18,29.03 -127.16,29.03 -56.7,0 -107.95,-13.08 -153.75,-39.25 -45.79,-26.17 -81.78,-61.88 -107.95,-107.13 -26.17,-45.25 -39.25,-95.96 -39.25,-152.11 0,-55.61 13.36,-105.77 40.07,-150.48 26.72,-44.7 63.38,-79.87 109.99,-105.49 46.62,-25.62 98.82,-38.44 156.61,-38.44 42.53,0 84.51,8.86 125.94,26.58 41.43,17.72 76.6,41.85 105.49,72.38l-86.68 104.67zm572.45 378.64l-39.25 -101.41 -247.79 0 -40.07 101.41 -153.75 0 246.16 -573.27 153.74 0 240.43 573.27 -159.47 0zm-242.06 -215.9l158.65 0 -78.51 -204.44 -80.14 204.44zm848.04 -184.82c-30.53,-17.99 -63.1,-32.71 -97.72,-44.16 -34.62,-11.45 -63.65,-17.17 -87.1,-17.17 -18.53,0 -33.12,3.41 -43.75,10.22 -10.63,6.82 -15.95,16.77 -15.95,29.85 0,12.54 4.64,23.03 13.91,31.49 9.26,8.45 20.71,15.26 34.34,20.44 13.63,5.18 33.8,11.86 60.52,20.04 39.8,11.44 72.65,22.89 98.54,34.34 25.9,11.45 48.12,29.03 66.65,52.75 18.54,23.72 27.81,54.66 27.81,92.82 0,38.16 -10.09,70.74 -30.26,97.73 -20.17,26.98 -47.84,47.29 -83.01,60.92 -35.16,13.63 -74.28,20.45 -117.35,20.45 -47.43,0 -94.73,-8.32 -141.89,-24.95 -47.15,-16.63 -87.91,-39.39 -122.26,-68.28l58.07 -116.95c28.89,25.63 63.1,46.62 102.63,62.97 39.53,16.36 74.56,24.54 105.09,24.54 22.35,0 39.93,-4.09 52.74,-12.27 12.82,-8.18 19.22,-20.17 19.22,-35.98 0,-13.09 -4.77,-23.99 -14.31,-32.71 -9.54,-8.73 -21.53,-15.68 -35.98,-20.86 -14.45,-5.18 -34.76,-11.31 -60.93,-18.4 -39.25,-10.9 -71.69,-21.94 -97.31,-33.12 -25.63,-11.17 -47.57,-28.08 -65.84,-50.7 -18.26,-22.63 -27.39,-52.75 -27.39,-90.37 0,-35.43 9.4,-66.51 28.21,-93.23 18.81,-26.71 45.52,-47.29 80.14,-61.74 34.62,-14.45 74.83,-21.67 120.63,-21.67 41.43,0 82.32,5.86 122.67,17.58 40.34,11.72 75.78,27.4 106.31,47.03l-56.43 119.39z"/>
    <path class="fil5" d="M394.54 8253.3c53.87,0 102.58,12.01 146.15,36.04 43.56,24.02 77.75,57.16 102.57,99.4 24.82,42.25 37.23,89.51 37.23,141.79 0,52.28 -12.54,99.54 -37.63,141.78 -25.08,42.25 -59.53,75.38 -103.36,99.41 -43.83,24.03 -92.94,36.04 -147.33,36.04l-223.37 0 0 -554.46 225.74 0zm1.59 485.55c38.55,0 73.53,-8.98 104.95,-26.93 31.42,-17.96 56.24,-42.78 74.46,-74.46 18.22,-31.68 27.32,-67.06 27.32,-106.14 0,-39.6 -9.24,-75.25 -27.72,-106.93 -18.48,-31.69 -43.7,-56.64 -75.64,-74.85 -31.95,-18.22 -67.46,-27.33 -106.54,-27.33l-148.12 0 0 416.64 151.29 0zm392.88 -485.55l384.95 0 0 68.91 -308.91 0 0 171.09 276.44 0 0 68.91 -276.44 0 0 176.64 318.42 0 0 68.91 -394.46 0 0 -554.46zm1136.65 554.46l-58.62 -134.66 -292.28 0 -57.82 134.66 -80 0 246.34 -554.46 79.21 0 245.54 554.46 -82.37 0zm-320.8 -203.57l232.87 0 -117.23 -269.31 -115.64 269.31zm412.68 -350.89l433.27 0 0 69.7 -179.01 0 0 484.76 -76.04 0 0 -484.76 -178.22 0 0 -69.7zm520.41 0l76.04 0 0 554.46 -76.04 0 0 -554.46zm159.21 0l81.59 0 182.97 469.71 182.97 -469.71 80 0 -224.95 554.46 -79.21 0 -223.37 -554.46zm610.7 0l76.04 0 0 554.46 -76.04 0 0 -554.46zm460.2 0c53.87,0 102.58,12.01 146.15,36.04 43.56,24.02 77.75,57.16 102.57,99.4 24.82,42.25 37.23,89.51 37.23,141.79 0,52.28 -12.54,99.54 -37.63,141.78 -25.08,42.25 -59.53,75.38 -103.36,99.41 -43.83,24.03 -92.94,36.04 -147.33,36.04l-223.37 0 0 -554.46 225.74 0zm1.59 485.55c38.55,0 73.53,-8.98 104.95,-26.93 31.42,-17.96 56.24,-42.78 74.46,-74.46 18.22,-31.68 27.32,-67.06 27.32,-106.14 0,-39.6 -9.24,-75.25 -27.72,-106.93 -18.48,-31.69 -43.7,-56.64 -75.64,-74.85 -31.95,-18.22 -67.46,-27.33 -106.54,-27.33l-148.12 0 0 416.64 151.29 0zm804.77 68.91l-58.62 -134.66 -292.28 0 -57.82 134.66 -80 0 246.34 -554.46 79.21 0 245.54 554.46 -82.37 0zm-320.8 -203.57l232.87 0 -117.23 -269.31 -115.64 269.31zm709.71 -350.89c53.87,0 102.58,12.01 146.15,36.04 43.56,24.02 77.75,57.16 102.57,99.4 24.82,42.25 37.23,89.51 37.23,141.79 0,52.28 -12.54,99.54 -37.63,141.78 -25.08,42.25 -59.53,75.38 -103.36,99.41 -43.83,24.03 -92.94,36.04 -147.33,36.04l-223.37 0 0 -554.46 225.74 0zm1.59 485.55c38.55,0 73.53,-8.98 104.95,-26.93 31.42,-17.96 56.24,-42.78 74.46,-74.46 18.22,-31.68 27.32,-67.06 27.32,-106.14 0,-39.6 -9.24,-75.25 -27.72,-106.93 -18.48,-31.69 -43.7,-56.64 -75.64,-74.85 -31.95,-18.22 -67.46,-27.33 -106.54,-27.33l-148.12 0 0 416.64 151.29 0zm392.88 -485.55l384.95 0 0 68.91 -308.91 0 0 171.09 276.44 0 0 68.91 -276.44 0 0 176.64 318.42 0 0 68.91 -394.46 0 0 -554.46zm724.76 0l361.19 0 -0.79 68.91 -284.36 0 0 182.18 255.84 0 0 68.91 -255.84 0 0 234.46 -76.04 0 0 -554.46zm449.91 0l76.04 0 0 554.46 -76.04 0 0 -554.46zm81.58 -160.01l76.04 33.27 -98.21 77.63 -62.58 -7.92 84.75 -102.98zm476.84 275.65c-25.87,-16.37 -52.67,-28.65 -80.39,-36.83 -27.73,-8.18 -53.21,-12.28 -76.44,-12.28 -32.21,0 -57.95,6.21 -77.23,18.62 -19.27,12.41 -28.91,29.44 -28.91,51.09 0,19.53 5.81,35.51 17.43,47.92 11.61,12.41 25.87,22.18 42.77,29.31 16.9,7.12 40.4,15.44 70.49,24.95 37.5,11.61 67.86,22.7 91.1,33.26 23.23,10.57 43.03,26.27 59.4,47.13 16.37,20.86 24.56,48.45 24.56,82.78 0,31.68 -8.58,59.4 -25.75,83.17 -17.16,23.76 -41.18,42.11 -72.08,55.05 -30.89,12.93 -66.4,19.4 -106.53,19.4 -40.66,0 -80.27,-7.92 -118.82,-23.76 -38.54,-15.84 -71.81,-36.96 -99.8,-63.37l34.06 -65.74c26.4,25.87 56.11,45.81 89.11,59.8 33,14 65.08,20.99 96.24,20.99 36.96,0 66.14,-7.26 87.53,-21.78 21.38,-14.52 32.08,-34.19 32.08,-59.01 0,-19.54 -5.81,-35.64 -17.43,-48.32 -11.62,-12.67 -26.27,-22.7 -43.96,-30.1 -17.69,-7.39 -41.59,-15.58 -71.69,-24.55 -36.96,-11.09 -67.06,-21.92 -90.29,-32.48 -23.24,-10.56 -42.91,-26.14 -59.01,-46.73 -16.11,-20.6 -24.16,-47.79 -24.16,-81.59 0,-29.57 8.18,-55.71 24.55,-78.41 16.37,-22.71 39.34,-40.14 68.91,-52.28 29.57,-12.15 63.9,-18.22 102.97,-18.22 33.27,0 65.88,4.88 97.83,14.65 31.95,9.77 60.33,22.84 85.15,39.21l-31.69 68.12zm163.97 -115.64l76.04 0 0 554.46 -76.04 0 0 -554.46zm636.05 133.07c-21.12,-22.18 -45.68,-39.47 -73.67,-51.88 -27.98,-12.41 -56.76,-18.62 -86.33,-18.62 -39.08,0 -74.99,9.51 -107.73,28.52 -32.74,19.01 -58.61,44.75 -77.62,77.23 -19.01,32.47 -28.52,68.25 -28.52,107.32 0,38.55 9.51,74.2 28.52,106.94 19.01,32.74 44.88,58.61 77.62,77.62 32.74,19.01 68.65,28.52 107.73,28.52 29.04,0 57.56,-5.94 85.54,-17.83 27.99,-11.88 52.81,-28.11 74.46,-48.71l45.94 49.9c-27.99,27.46 -60.46,48.98 -97.43,64.56 -36.96,15.58 -74.45,23.36 -112.47,23.36 -52.81,0 -101.13,-12.54 -144.96,-37.62 -43.83,-25.08 -78.41,-59.27 -103.76,-102.58 -25.35,-43.3 -38.02,-91.09 -38.02,-143.36 0,-51.75 12.8,-99.15 38.42,-142.18 25.61,-43.04 60.59,-76.97 104.95,-101.79 44.35,-24.82 93.2,-37.23 146.53,-37.23 38.55,0 75.91,7.27 112.09,21.79 36.17,14.52 67.45,34.98 93.86,61.38l-45.15 54.66zm563.97 421.39l-58.62 -134.66 -292.28 0 -57.82 134.66 -80 0 246.34 -554.46 79.21 0 245.54 554.46 -82.37 0zm-320.8 -203.57l232.87 0 -117.23 -269.31 -115.64 269.31zm691.5 -350.89l384.95 0 0 68.91 -308.91 0 0 171.09 276.44 0 0 68.91 -276.44 0 0 176.64 318.42 0 0 68.91 -394.46 0 0 -554.46zm1126.35 133.07c-21.12,-22.18 -45.68,-39.47 -73.67,-51.88 -27.98,-12.41 -56.76,-18.62 -86.33,-18.62 -39.08,0 -74.99,9.51 -107.73,28.52 -32.74,19.01 -58.61,44.75 -77.62,77.23 -19.01,32.47 -28.52,68.25 -28.52,107.32 0,38.55 9.51,74.2 28.52,106.94 19.01,32.74 44.88,58.61 77.62,77.62 32.74,19.01 68.65,28.52 107.73,28.52 29.04,0 57.56,-5.94 85.54,-17.83 27.99,-11.88 52.81,-28.11 74.46,-48.71l45.94 49.9c-27.99,27.46 -60.46,48.98 -97.43,64.56 -36.96,15.58 -74.45,23.36 -112.47,23.36 -52.81,0 -101.13,-12.54 -144.96,-37.62 -43.83,-25.08 -78.41,-59.27 -103.76,-102.58 -25.35,-43.3 -38.02,-91.09 -38.02,-143.36 0,-51.75 12.8,-99.15 38.42,-142.18 25.61,-43.04 60.59,-76.97 104.95,-101.79 44.35,-24.82 93.2,-37.23 146.53,-37.23 38.55,0 75.91,7.27 112.09,21.79 36.17,14.52 67.45,34.98 93.86,61.38l-45.15 54.66zm394.46 -137.83c53.33,0 102.31,12.41 146.93,37.23 44.62,24.82 79.87,58.75 105.75,101.79 25.87,43.03 38.81,90.43 38.81,142.18 0,51.75 -12.94,99.4 -38.81,142.97 -25.88,43.56 -61.13,77.89 -105.75,102.97 -44.62,25.08 -93.6,37.62 -146.93,37.62 -53.34,0 -102.31,-12.54 -146.93,-37.62 -44.63,-25.08 -79.87,-59.41 -105.75,-102.97 -25.87,-43.57 -38.81,-91.22 -38.81,-142.97 0,-51.75 12.94,-99.15 38.81,-142.18 25.88,-43.04 60.99,-76.97 105.35,-101.79 44.36,-24.82 93.47,-37.23 147.33,-37.23zm0.79 68.12c-38.55,0 -74.32,9.51 -107.33,28.52 -33,19.01 -59.27,44.75 -78.81,77.23 -19.54,32.47 -29.31,68.25 -29.31,107.33 0,39.07 9.77,74.98 29.31,107.72 19.54,32.74 45.81,58.75 78.81,78.02 33.01,19.28 68.78,28.91 107.33,28.91 38.55,0 74.06,-9.63 106.54,-28.91 32.47,-19.27 58.35,-45.28 77.62,-78.02 19.28,-32.74 28.91,-68.65 28.91,-107.72 0,-39.08 -9.63,-74.86 -28.91,-107.33 -19.27,-32.48 -45.15,-58.22 -77.62,-77.23 -32.48,-19.01 -67.99,-28.52 -106.54,-28.52zm400.01 -63.36l90.3 0 202.77 389.71 201.19 -389.71 91.09 0 0 554.46 -71.28 0 -0.8 -442.78 -197.23 384.17 -46.73 0 -198.81 -384.17 0 442.78 -70.5 0 0 -554.46zm957.63 0c69.18,0 122.65,16.37 160.4,49.11 37.76,32.74 56.64,78.68 56.64,137.82 0,61.78 -19.01,109.7 -57.03,143.76 -38.02,34.06 -91.36,51.09 -160.01,51.09l-137.82 0 0 172.68 -76.04 0 0 -554.46 213.86 0zm-3.17 312.87c47.53,0 83.97,-10.43 109.31,-31.29 25.35,-20.85 38.02,-51.61 38.02,-92.27 0,-39.61 -12.67,-69.58 -38.02,-89.91 -25.34,-20.33 -61.78,-30.49 -109.31,-30.49l-134.65 0.79 0 243.17 134.65 0zm563.18 -317.63c53.33,0 102.31,12.41 146.93,37.23 44.62,24.82 79.87,58.75 105.75,101.79 25.87,43.03 38.81,90.43 38.81,142.18 0,51.75 -12.94,99.4 -38.81,142.97 -25.88,43.56 -61.13,77.89 -105.75,102.97 -44.62,25.08 -93.6,37.62 -146.93,37.62 -53.34,0 -102.31,-12.54 -146.93,-37.62 -44.63,-25.08 -79.87,-59.41 -105.75,-102.97 -25.87,-43.57 -38.81,-91.22 -38.81,-142.97 0,-51.75 12.94,-99.15 38.81,-142.18 25.88,-43.04 60.99,-76.97 105.35,-101.79 44.36,-24.82 93.47,-37.23 147.33,-37.23zm0.79 68.12c-38.55,0 -74.32,9.51 -107.33,28.52 -33,19.01 -59.27,44.75 -78.81,77.23 -19.54,32.47 -29.31,68.25 -29.31,107.33 0,39.07 9.77,74.98 29.31,107.72 19.54,32.74 45.81,58.75 78.81,78.02 33.01,19.28 68.78,28.91 107.33,28.91 38.55,0 74.06,-9.63 106.54,-28.91 32.47,-19.27 58.35,-45.28 77.62,-78.02 19.28,-32.74 28.91,-68.65 28.91,-107.72 0,-39.08 -9.63,-74.86 -28.91,-107.33 -19.27,-32.48 -45.15,-58.22 -77.62,-77.23 -32.48,-19.01 -67.99,-28.52 -106.54,-28.52zm758.03 491.1l-110.1 -174.26c-12.67,1.06 -22.97,1.58 -30.89,1.58l-140.99 0 0 172.68 -76.04 0 0 -554.46 217.03 0c70.23,0 124.49,16.23 162.78,48.71 38.28,32.48 57.42,78.55 57.42,138.22 0,44.89 -10.43,82.64 -31.28,113.27 -20.86,30.63 -50.83,52.81 -89.91,66.53l129.11 187.73 -87.13 0zm-140.99 -241.59c47.53,0 83.96,-10.43 109.31,-31.29 25.35,-20.85 38.02,-51.61 38.02,-92.27 0,-39.61 -12.67,-69.58 -38.02,-89.91 -25.35,-20.33 -61.78,-30.49 -109.31,-30.49l-140.99 0 0 243.96 140.99 0zm284.36 -312.87l433.27 0 0 69.7 -179.01 0 0 484.76 -76.04 0 0 -484.76 -178.22 0 0 -69.7zm932.3 554.46l-58.62 -134.66 -292.28 0 -57.82 134.66 -80 0 246.34 -554.46 79.21 0 245.54 554.46 -82.37 0zm-320.8 -203.57l232.87 0 -117.23 -269.31 -115.64 269.31zm483.97 -350.89l90.3 0 202.77 389.71 201.19 -389.71 91.09 0 0 554.46 -71.28 0 -0.8 -442.78 -197.23 384.17 -46.73 0 -198.81 -384.17 0 442.78 -70.5 0 0 -554.46zm743.77 0l384.95 0 0 68.91 -308.91 0 0 171.09 276.44 0 0 68.91 -276.44 0 0 176.64 318.42 0 0 68.91 -394.46 0 0 -554.46zm911.69 0l75.25 0 0 554.46 -76.83 0 -316.84 -429.31 0 429.31 -76.04 0 0 -554.46 76.83 0 317.63 430.1 0 -430.1zm163.17 0l433.27 0 0 69.7 -179.01 0 0 484.76 -76.04 0 0 -484.76 -178.22 0 0 -69.7zm762.79 -4.76c53.33,0 102.31,12.41 146.93,37.23 44.62,24.82 79.87,58.75 105.75,101.79 25.87,43.03 38.81,90.43 38.81,142.18 0,51.75 -12.94,99.4 -38.81,142.97 -25.88,43.56 -61.13,77.89 -105.75,102.97 -44.62,25.08 -93.6,37.62 -146.93,37.62 -53.34,0 -102.31,-12.54 -146.93,-37.62 -44.63,-25.08 -79.87,-59.41 -105.75,-102.97 -25.87,-43.57 -38.81,-91.22 -38.81,-142.97 0,-51.75 12.94,-99.15 38.81,-142.18 25.88,-43.04 60.99,-76.97 105.35,-101.79 44.36,-24.82 93.47,-37.23 147.33,-37.23zm0.79 68.12c-38.55,0 -74.32,9.51 -107.33,28.52 -33,19.01 -59.27,44.75 -78.81,77.23 -19.54,32.47 -29.31,68.25 -29.31,107.33 0,39.07 9.77,74.98 29.31,107.72 19.54,32.74 45.81,58.75 78.81,78.02 33.01,19.28 68.78,28.91 107.33,28.91 38.55,0 74.06,-9.63 106.54,-28.91 32.47,-19.27 58.35,-45.28 77.62,-78.02 19.28,-32.74 28.91,-68.65 28.91,-107.72 0,-39.08 -9.63,-74.86 -28.91,-107.33 -19.27,-32.48 -45.15,-58.22 -77.62,-77.23 -32.48,-19.01 -67.99,-28.52 -106.54,-28.52zm931.5 52.28c-25.87,-16.37 -52.67,-28.65 -80.39,-36.83 -27.73,-8.18 -53.21,-12.28 -76.44,-12.28 -32.21,0 -57.95,6.21 -77.23,18.62 -19.27,12.41 -28.91,29.44 -28.91,51.09 0,19.53 5.81,35.51 17.43,47.92 11.61,12.41 25.87,22.18 42.77,29.31 16.9,7.12 40.4,15.44 70.49,24.95 37.5,11.61 67.86,22.7 91.1,33.26 23.23,10.57 43.03,26.27 59.4,47.13 16.37,20.86 24.56,48.45 24.56,82.78 0,31.68 -8.58,59.4 -25.75,83.17 -17.16,23.76 -41.18,42.11 -72.08,55.05 -30.89,12.93 -66.4,19.4 -106.53,19.4 -40.66,0 -80.27,-7.92 -118.82,-23.76 -38.54,-15.84 -71.81,-36.96 -99.8,-63.37l34.06 -65.74c26.4,25.87 56.11,45.81 89.11,59.8 33,14 65.08,20.99 96.24,20.99 36.96,0 66.14,-7.26 87.53,-21.78 21.38,-14.52 32.08,-34.19 32.08,-59.01 0,-19.54 -5.81,-35.64 -17.43,-48.32 -11.62,-12.67 -26.27,-22.7 -43.96,-30.1 -17.69,-7.39 -41.59,-15.58 -71.69,-24.55 -36.96,-11.09 -67.06,-21.92 -90.29,-32.48 -23.24,-10.56 -42.91,-26.14 -59.01,-46.73 -16.11,-20.6 -24.16,-47.79 -24.16,-81.59 0,-29.57 8.18,-55.71 24.55,-78.41 16.37,-22.71 39.34,-40.14 68.91,-52.28 29.57,-12.15 63.9,-18.22 102.97,-18.22 33.27,0 65.88,4.88 97.83,14.65 31.95,9.77 60.33,22.84 85.15,39.21l-31.69 68.12zm163.97 -115.64l384.95 0 0 68.91 -308.91 0 0 171.09 276.44 0 0 68.91 -276.44 0 0 176.64 318.42 0 0 68.91 -394.46 0 0 -554.46zm742.97 0c53.87,0 102.58,12.01 146.15,36.04 43.56,24.02 77.75,57.16 102.57,99.4 24.82,42.25 37.23,89.51 37.23,141.79 0,52.28 -12.54,99.54 -37.63,141.78 -25.08,42.25 -59.53,75.38 -103.36,99.41 -43.83,24.03 -92.94,36.04 -147.33,36.04l-223.37 0 0 -554.46 225.74 0zm1.59 485.55c38.55,0 73.53,-8.98 104.95,-26.93 31.42,-17.96 56.24,-42.78 74.46,-74.46 18.22,-31.68 27.32,-67.06 27.32,-106.14 0,-39.6 -9.24,-75.25 -27.72,-106.93 -18.48,-31.69 -43.7,-56.64 -75.64,-74.85 -31.95,-18.22 -67.46,-27.33 -106.54,-27.33l-148.12 0 0 416.64 151.29 0zm392.88 -485.55l384.95 0 0 68.91 -308.91 0 0 171.09 276.44 0 0 68.91 -276.44 0 0 176.64 318.42 0 0 68.91 -394.46 0 0 -554.46zm911.69 0l75.25 0 0 554.46 -76.83 0 -316.84 -429.31 0 429.31 -76.04 0 0 -554.46 76.83 0 317.63 430.1 0 -430.1zm163.17 0l433.27 0 0 69.7 -179.01 0 0 484.76 -76.04 0 0 -484.76 -178.22 0 0 -69.7zm932.3 554.46l-58.62 -134.66 -292.28 0 -57.82 134.66 -80 0 246.34 -554.46 79.21 0 245.54 554.46 -82.37 0zm-320.8 -203.57l232.87 0 -117.23 -269.31 -115.64 269.31zm160.79 -510.9l76.04 33.27 -98.21 77.63 -62.58 -7.92 84.75 -102.98zm681.2 714.47l-110.1 -174.26c-12.67,1.06 -22.97,1.58 -30.89,1.58l-140.99 0 0 172.68 -76.04 0 0 -554.46 217.03 0c70.23,0 124.49,16.23 162.78,48.71 38.28,32.48 57.42,78.55 57.42,138.22 0,44.89 -10.43,82.64 -31.28,113.27 -20.86,30.63 -50.83,52.81 -89.91,66.53l129.11 187.73 -87.13 0zm-140.99 -241.59c47.53,0 83.96,-10.43 109.31,-31.29 25.35,-20.85 38.02,-51.61 38.02,-92.27 0,-39.61 -12.67,-69.58 -38.02,-89.91 -25.35,-20.33 -61.78,-30.49 -109.31,-30.49l-140.99 0 0 243.96 140.99 0zm355.65 -312.87l76.04 0 0 554.46 -76.04 0 0 -554.46zm476.84 -4.76c53.33,0 102.31,12.41 146.93,37.23 44.62,24.82 79.87,58.75 105.75,101.79 25.87,43.03 38.81,90.43 38.81,142.18 0,51.75 -12.94,99.4 -38.81,142.97 -25.88,43.56 -61.13,77.89 -105.75,102.97 -44.62,25.08 -93.6,37.62 -146.93,37.62 -53.34,0 -102.31,-12.54 -146.93,-37.62 -44.63,-25.08 -79.87,-59.41 -105.75,-102.97 -25.87,-43.57 -38.81,-91.22 -38.81,-142.97 0,-51.75 12.94,-99.15 38.81,-142.18 25.88,-43.04 60.99,-76.97 105.35,-101.79 44.36,-24.82 93.47,-37.23 147.33,-37.23zm0.79 68.12c-38.55,0 -74.32,9.51 -107.33,28.52 -33,19.01 -59.27,44.75 -78.81,77.23 -19.54,32.47 -29.31,68.25 -29.31,107.33 0,39.07 9.77,74.98 29.31,107.72 19.54,32.74 45.81,58.75 78.81,78.02 33.01,19.28 68.78,28.91 107.33,28.91 38.55,0 74.06,-9.63 106.54,-28.91 32.47,-19.27 58.35,-45.28 77.62,-78.02 19.28,-32.74 28.91,-68.65 28.91,-107.72 0,-39.08 -9.63,-74.86 -28.91,-107.33 -19.27,-32.48 -45.15,-58.22 -77.62,-77.23 -32.48,-19.01 -67.99,-28.52 -106.54,-28.52z"/>
   </g>
   <g>
    <path class="fil5" d="M8508.33 10198.26l-58.28 -56.71c-23.11,-21 -55.13,-51.97 -96.09,-92.93 -95.55,75.61 -199.51,113.41 -311.87,113.41 -71.41,0 -135.98,-13.65 -193.74,-40.95 -57.75,-27.3 -102.91,-65.37 -135.46,-114.2 -32.55,-48.83 -48.83,-104.22 -48.83,-166.17 0,-68.26 19.43,-125.23 58.28,-170.9 38.85,-45.68 91.88,-86.9 159.09,-123.65 -32.55,-46.2 -55.92,-88.47 -70.09,-126.8 -14.18,-38.33 -21.27,-77.44 -21.27,-117.34 0,-81.91 28.62,-147.02 85.85,-195.32 57.22,-48.3 134.14,-72.45 230.75,-72.45 61.96,0 117.08,10.5 165.39,31.5 48.3,21 85.84,50.4 112.62,88.2 26.78,37.81 40.16,80.86 40.16,129.16 0,69.31 -22.57,126.54 -67.73,171.69 -45.15,45.16 -108.15,88.73 -189.01,130.74 40.95,46.2 96.61,103.95 166.96,173.26 28.35,-50.4 52.51,-108.68 72.46,-174.84l177.99 129.16c-27.31,72.46 -60.38,136.51 -99.24,192.17l58.28 55.13 105.54 99.23 -141.76 138.61zm-500.89 -897.82c0,44.1 18.37,94.51 55.13,151.21 46.2,-25.2 81.64,-50.4 106.32,-75.6 24.67,-25.21 37.01,-55.13 37.01,-89.79 0,-27.3 -8.66,-49.61 -25.99,-66.94 -17.32,-17.32 -40.69,-25.99 -70.09,-25.99 -31.5,0 -56.44,9.98 -74.82,29.93 -18.37,19.95 -27.56,45.68 -27.56,77.18zm45.68 663.13c52.5,0 104.48,-18.91 155.93,-56.71 -84,-81.9 -156.98,-157.51 -218.94,-226.82 -31.5,19.96 -55.65,41.22 -72.45,63.8 -16.81,22.57 -25.21,47.51 -25.21,74.81 0,43.06 15.23,77.97 45.68,104.75 30.45,26.78 68.78,40.17 114.99,40.17z"/>
    <g>
     <path class="fil5" d="M8871.02 9051.24l156.8 0 0 600.64 -156.8 0 0 -600.64zm897.96 203.92c-19.42,-24.56 -42.55,-44.12 -69.4,-58.69 -26.85,-14.57 -53.41,-21.85 -79.69,-21.85 -30.27,0 -57.83,7.57 -82.68,22.71 -24.85,15.13 -44.42,35.98 -58.7,62.55 -14.28,26.56 -21.42,56.12 -21.42,88.68 0,32.56 7.14,62.12 21.42,88.68 14.28,26.56 33.85,47.41 58.7,62.55 24.85,15.14 52.41,22.71 82.68,22.71 24.57,0 50.27,-6.29 77.12,-18.85 26.85,-12.57 50.84,-29.71 71.97,-51.41l91.68 98.53c-32.56,34.28 -71.26,61.55 -116.1,81.83 -44.84,20.28 -89.25,30.42 -133.24,30.42 -59.4,0 -113.1,-13.71 -161.08,-41.13 -47.98,-27.42 -85.69,-64.83 -113.1,-112.25 -27.42,-47.41 -41.13,-100.53 -41.13,-159.37 0,-58.26 13.99,-110.82 41.98,-157.66 27.99,-46.84 66.41,-83.68 115.25,-110.53 48.84,-26.85 103.53,-40.27 164.08,-40.27 44.56,0 88.54,9.28 131.96,27.85 43.41,18.56 80.25,43.84 110.53,75.83l-90.83 109.67zm444.7 -213.35c61.13,0 116.4,13.42 165.81,40.27 49.41,26.85 88.25,63.69 116.53,110.53 28.27,46.84 42.41,99.4 42.41,157.66 0,58.84 -14.14,111.96 -42.41,159.37 -28.28,47.42 -67.12,84.83 -116.53,112.25 -49.41,27.42 -104.68,41.13 -165.81,41.13 -61.12,0 -116.39,-13.57 -165.8,-40.7 -49.41,-27.13 -88.25,-64.55 -116.53,-112.25 -28.27,-47.69 -42.41,-100.96 -42.41,-159.8 0,-58.26 14.14,-110.82 42.41,-157.66 28.28,-46.84 67.12,-83.68 116.53,-110.53 49.41,-26.85 104.68,-40.27 165.8,-40.27zm1.71 132.81c-29.7,0 -57.26,7.71 -82.68,23.13 -25.42,15.43 -45.56,36.71 -60.41,63.84 -14.85,27.13 -22.28,56.98 -22.28,89.54 0,33.13 7.57,63.26 22.71,90.4 15.14,27.13 35.27,48.55 60.41,64.26 25.13,15.71 52.55,23.56 82.25,23.56 29.72,0 56.99,-7.85 81.84,-23.56 24.85,-15.71 44.41,-37.13 58.7,-64.26 14.28,-27.14 21.42,-57.27 21.42,-90.4 0,-32.56 -7.14,-62.41 -21.42,-89.54 -14.29,-27.13 -33.85,-48.41 -58.7,-63.84 -24.85,-15.42 -52.12,-23.13 -81.84,-23.13zm811.44 -123.38l145.66 0 0 600.64 -137.09 0 -272.48 -359.02 0 359.02 -146.51 0 0 -600.64 137.95 0 273.33 361.58 -0.86 -361.58zm555.24 248.48l247.63 0 0 284.47c-31.99,23.42 -72.41,42.41 -121.25,56.98 -48.84,14.57 -94.11,21.85 -135.81,21.85 -60.55,0 -115.24,-13.57 -164.08,-40.7 -48.84,-27.13 -87.26,-64.41 -115.25,-111.82 -27.99,-47.41 -41.98,-100.53 -41.98,-159.37 0,-58.27 14.42,-110.96 43.27,-158.09 28.84,-47.12 68.54,-84.11 119.1,-110.96 50.55,-26.85 106.96,-40.27 169.22,-40.27 44.56,0 87.97,8.14 130.24,24.42 42.27,16.28 78.83,38.13 109.69,65.55l-89.12 109.67c-21.71,-20.56 -45.56,-36.84 -71.55,-48.84 -25.99,-11.99 -52.69,-17.99 -80.11,-17.99 -31.99,0 -60.84,7.71 -86.54,23.13 -25.71,15.43 -45.99,36.56 -60.84,63.41 -14.85,26.85 -22.28,56.84 -22.28,89.97 0,33.7 7.43,64.12 22.28,91.25 14.85,27.14 35.42,48.41 61.69,63.84 26.28,15.42 55.41,23.13 87.4,23.13 30.28,0 64.84,-9.71 103.68,-29.13l0 -58.27 -105.39 0 0 -142.23zm705.18 352.16l-87.39 -166.23 -3.43 0 -113.1 0 0 166.23 -156.8 0 0 -600.64 269.9 0c79.4,0 140.95,18.42 184.65,55.26 43.7,36.85 65.55,88.68 65.55,155.52 0,45.12 -9.14,84.11 -27.42,116.96 -18.28,32.84 -44.84,58.4 -79.69,76.68l125.1 196.22 -177.37 0zm-203.92 -291.33l113.96 0c31.99,0 56.69,-7.99 74.11,-23.99 17.43,-15.99 26.14,-39.13 26.14,-69.4 0,-29.13 -8.71,-51.55 -26.14,-67.26 -17.42,-15.71 -42.12,-23.57 -74.11,-23.57l-113.96 0 0 184.22zm463.55 -309.31l473.83 0 0 125.09 -317.03 0 0 112.25 286.18 0 0 124.24 -286.18 0.86 0 113.1 325.6 0 0 125.1 -482.4 0 0 -600.64zm992.23 180.79c-31.99,-18.85 -66.12,-34.28 -102.39,-46.27 -36.29,-12 -66.7,-17.99 -91.27,-17.99 -19.42,0 -34.7,3.57 -45.84,10.71 -11.14,7.14 -16.71,17.56 -16.71,31.27 0,13.14 4.86,24.13 14.57,32.99 9.71,8.85 21.71,15.99 35.99,21.42 14.28,5.43 35.41,12.42 63.4,20.99 41.71,12 76.13,23.99 103.26,35.99 27.14,12 50.41,30.42 69.84,55.27 19.42,24.84 29.13,57.26 29.13,97.25 0,39.98 -10.57,74.11 -31.71,102.39 -21.13,28.28 -50.12,49.55 -86.96,63.83 -36.85,14.28 -77.84,21.43 -122.97,21.43 -49.7,0 -99.25,-8.72 -148.66,-26.14 -49.41,-17.42 -92.11,-41.27 -128.1,-71.54l60.84 -122.53c30.27,26.85 66.11,48.84 107.53,65.97 41.41,17.14 78.11,25.71 110.1,25.71 23.42,0 41.84,-4.28 55.28,-12.85 13.42,-8.57 20.13,-21.14 20.13,-37.7 0,-13.71 -4.99,-25.14 -14.99,-34.28 -10,-9.14 -22.57,-16.42 -37.71,-21.85 -15.14,-5.42 -36.42,-11.85 -63.84,-19.28 -41.12,-11.42 -75.11,-22.99 -101.96,-34.7 -26.85,-11.71 -49.84,-29.42 -68.98,-53.12 -19.13,-23.71 -28.7,-55.27 -28.7,-94.68 0,-37.13 9.85,-69.69 29.56,-97.68 19.71,-27.99 47.7,-49.56 83.97,-64.69 36.27,-15.14 78.4,-22.71 126.39,-22.71 43.41,0 86.26,6.14 128.53,18.42 42.27,12.28 79.4,28.71 111.39,49.27l-59.12 125.1zm553.52 0c-31.99,-18.85 -66.12,-34.28 -102.39,-46.27 -36.28,-12 -66.69,-17.99 -91.26,-17.99 -19.42,0 -34.7,3.57 -45.84,10.71 -11.14,7.14 -16.71,17.56 -16.71,31.27 0,13.14 4.86,24.13 14.57,32.99 9.71,8.85 21.71,15.99 35.99,21.42 14.28,5.43 35.41,12.42 63.4,20.99 41.7,12 76.12,23.99 103.25,35.99 27.14,12 50.41,30.42 69.84,55.27 19.42,24.84 29.13,57.26 29.13,97.25 0,39.98 -10.57,74.11 -31.71,102.39 -21.13,28.28 -50.12,49.55 -86.96,63.83 -36.85,14.28 -77.83,21.43 -122.96,21.43 -49.7,0 -99.25,-8.72 -148.66,-26.14 -49.41,-17.42 -92.11,-41.27 -128.1,-71.54l60.84 -122.53c30.27,26.85 66.11,48.84 107.53,65.97 41.41,17.14 78.11,25.71 110.1,25.71 23.42,0 41.84,-4.28 55.27,-12.85 13.42,-8.57 20.13,-21.14 20.13,-37.7 0,-13.71 -4.99,-25.14 -14.99,-34.28 -10,-9.14 -22.56,-16.42 -37.7,-21.85 -15.14,-5.42 -36.42,-11.85 -63.84,-19.28 -41.12,-11.42 -75.11,-22.99 -101.96,-34.7 -26.85,-11.71 -49.84,-29.42 -68.98,-53.12 -19.13,-23.71 -28.7,-55.27 -28.7,-94.68 0,-37.13 9.85,-69.69 29.56,-97.68 19.71,-27.99 47.7,-49.56 83.97,-64.69 36.27,-15.14 78.4,-22.71 126.39,-22.71 43.41,0 86.25,6.14 128.52,18.42 42.27,12.28 79.4,28.71 111.39,49.27l-59.12 125.1zm425.85 -190.22c61.12,0 116.39,13.42 165.8,40.27 49.41,26.85 88.25,63.69 116.53,110.53 28.27,46.84 42.41,99.4 42.41,157.66 0,58.84 -14.14,111.96 -42.41,159.37 -28.28,47.42 -67.12,84.83 -116.53,112.25 -49.41,27.42 -104.68,41.13 -165.8,41.13 -61.12,0 -116.39,-13.57 -165.8,-40.7 -49.41,-27.13 -88.25,-64.55 -116.53,-112.25 -28.27,-47.69 -42.41,-100.96 -42.41,-159.8 0,-58.26 14.14,-110.82 42.41,-157.66 28.28,-46.84 67.12,-83.68 116.53,-110.53 49.41,-26.85 104.68,-40.27 165.8,-40.27zm1.71 132.81c-29.7,0 -57.26,7.71 -82.68,23.13 -25.42,15.43 -45.56,36.71 -60.41,63.84 -14.85,27.13 -22.28,56.98 -22.28,89.54 0,33.13 7.57,63.26 22.71,90.4 15.14,27.13 35.27,48.55 60.41,64.26 25.13,15.71 52.55,23.56 82.25,23.56 29.71,0 56.98,-7.85 81.83,-23.56 24.85,-15.71 44.41,-37.13 58.7,-64.26 14.28,-27.14 21.42,-57.27 21.42,-90.4 0,-32.56 -7.14,-62.41 -21.42,-89.54 -14.29,-27.13 -33.85,-48.41 -58.7,-63.84 -24.85,-15.42 -52.12,-23.13 -81.83,-23.13zm1005.09 57.41c-31.99,-18.85 -66.12,-34.28 -102.39,-46.27 -36.28,-12 -66.69,-17.99 -91.26,-17.99 -19.42,0 -34.7,3.57 -45.84,10.71 -11.14,7.14 -16.71,17.56 -16.71,31.27 0,13.14 4.86,24.13 14.57,32.99 9.71,8.85 21.71,15.99 35.99,21.42 14.28,5.43 35.41,12.42 63.4,20.99 41.7,12 76.12,23.99 103.25,35.99 27.14,12 50.41,30.42 69.84,55.27 19.42,24.84 29.13,57.26 29.13,97.25 0,39.98 -10.57,74.11 -31.71,102.39 -21.13,28.28 -50.12,49.55 -86.96,63.83 -36.85,14.28 -77.83,21.43 -122.96,21.43 -49.7,0 -99.25,-8.72 -148.66,-26.14 -49.41,-17.42 -92.11,-41.27 -128.1,-71.54l60.84 -122.53c30.27,26.85 66.11,48.84 107.53,65.97 41.41,17.14 78.11,25.71 110.1,25.71 23.42,0 41.84,-4.28 55.27,-12.85 13.42,-8.57 20.13,-21.14 20.13,-37.7 0,-13.71 -4.99,-25.14 -14.99,-34.28 -10,-9.14 -22.56,-16.42 -37.7,-21.85 -15.14,-5.42 -36.42,-11.85 -63.84,-19.28 -41.12,-11.42 -75.11,-22.99 -101.96,-34.7 -26.85,-11.71 -49.84,-29.42 -68.98,-53.12 -19.13,-23.71 -28.7,-55.27 -28.7,-94.68 0,-37.13 9.85,-69.69 29.56,-97.68 19.71,-27.99 47.7,-49.56 83.97,-64.69 36.27,-15.14 78.4,-22.71 126.39,-22.71 43.41,0 86.25,6.14 128.52,18.42 42.27,12.28 79.4,28.71 111.39,49.27l-59.12 125.1zm286.18 172.22c0,37.7 11.14,67.98 33.42,90.83 22.28,22.85 50.56,34.27 84.83,34.27 33.7,0 60.98,-11.28 81.83,-33.84 20.85,-22.57 31.27,-52.98 31.27,-91.26l0 -353.01 156.8 0 0 353.01c0,51.98 -10.99,97.54 -32.99,136.67 -21.99,39.13 -53.4,69.26 -94.25,90.4 -40.84,21.13 -88.68,31.7 -143.52,31.7 -54.84,0 -102.96,-10.57 -144.38,-31.7 -41.41,-21.14 -73.4,-51.27 -95.96,-90.4 -22.57,-39.13 -33.85,-84.69 -33.85,-136.67l0 -353.01 156.8 0 0 353.01zm495.26 -353.01l156.8 0 0 466.97 254.49 0 0 133.67 -411.29 0 0 -600.64zm471.27 288.75l227.06 0 0 97.68 -227.06 0 0 -97.68zm773.72 311.89l-41.13 -106.25 -259.62 0 -41.99 106.25 -161.08 0 257.9 -600.64 161.09 0 251.91 600.64 -167.08 0zm-253.63 -226.21l166.23 0 -82.26 -214.21 -83.97 214.21zm474.7 -374.43l170.51 0 173.93 351.3 173.1 -351.3 170.51 0 0 600.64 -138.81 0 -0.86 -380.44 -153.37 320.46 -101.12 0 -154.23 -320.46 0 380.44 -139.66 0 0 -600.64zm804.58 0l473.83 0 0 125.09 -317.03 0 0 112.25 286.18 0 0 124.24 -286.18 0.86 0 113.1 325.6 0 0 125.1 -482.4 0 0 -600.64zm939.09 600.64l-87.39 -166.23 -3.43 0 -113.1 0 0 166.23 -156.8 0 0 -600.64 269.9 0c79.4,0 140.95,18.42 184.65,55.26 43.7,36.85 65.55,88.68 65.55,155.52 0,45.12 -9.14,84.11 -27.42,116.96 -18.28,32.84 -44.84,58.4 -79.69,76.68l125.1 196.22 -177.37 0zm-203.92 -291.33l113.96 0c31.99,0 56.69,-7.99 74.11,-23.99 17.43,-15.99 26.14,-39.13 26.14,-69.4 0,-29.13 -8.71,-51.55 -26.14,-67.26 -17.42,-15.71 -42.12,-23.57 -74.11,-23.57l-113.96 0 0 184.22zm463.56 -309.31l156.8 0 0 600.64 -156.8 0 0 -600.64zm707.74 203.92c-19.42,-24.56 -42.55,-44.12 -69.4,-58.69 -26.85,-14.57 -53.41,-21.85 -79.69,-21.85 -30.27,0 -57.83,7.57 -82.68,22.71 -24.85,15.13 -44.42,35.98 -58.7,62.55 -14.28,26.56 -21.42,56.12 -21.42,88.68 0,32.56 7.14,62.12 21.42,88.68 14.28,26.56 33.85,47.41 58.7,62.55 24.85,15.14 52.41,22.71 82.68,22.71 24.57,0 50.27,-6.29 77.12,-18.85 26.85,-12.57 50.84,-29.71 71.97,-51.41l91.68 98.53c-32.56,34.28 -71.26,61.55 -116.1,81.83 -44.84,20.28 -89.25,30.42 -133.24,30.42 -59.4,0 -113.1,-13.71 -161.08,-41.13 -47.98,-27.42 -85.69,-64.83 -113.1,-112.25 -27.42,-47.41 -41.13,-100.53 -41.13,-159.37 0,-58.26 13.99,-110.82 41.98,-157.66 27.99,-46.84 66.41,-83.68 115.25,-110.53 48.84,-26.85 103.53,-40.27 164.08,-40.27 44.56,0 88.54,9.28 131.96,27.85 43.41,18.56 80.25,43.84 110.53,75.83l-90.83 109.67zm599.79 396.72l-41.13 -106.25 -259.62 0 -41.99 106.25 -161.08 0 257.9 -600.64 161.09 0 251.91 600.64 -167.08 0zm-253.63 -226.21l166.23 0 -82.26 -214.21 -83.97 214.21zm885.13 -374.43l145.66 0 0 600.64 -137.09 0 -272.48 -359.02 0 359.02 -146.52 0 0 -600.64 137.96 0 273.33 361.58 -0.86 -361.58zm549.24 -9.43c61.12,0 116.39,13.42 165.8,40.27 49.41,26.85 88.25,63.69 116.53,110.53 28.27,46.84 42.41,99.4 42.41,157.66 0,58.84 -14.14,111.96 -42.41,159.37 -28.28,47.42 -67.12,84.83 -116.53,112.25 -49.41,27.42 -104.68,41.13 -165.8,41.13 -61.12,0 -116.39,-13.57 -165.8,-40.7 -49.41,-27.13 -88.25,-64.55 -116.53,-112.25 -28.27,-47.69 -42.41,-100.96 -42.41,-159.8 0,-58.26 14.14,-110.82 42.41,-157.66 28.28,-46.84 67.12,-83.68 116.53,-110.53 49.41,-26.85 104.68,-40.27 165.8,-40.27zm1.71 132.81c-29.7,0 -57.26,7.71 -82.68,23.13 -25.42,15.43 -45.56,36.71 -60.41,63.84 -14.85,27.13 -22.28,56.98 -22.28,89.54 0,33.13 7.57,63.26 22.71,90.4 15.14,27.13 35.27,48.55 60.41,64.26 25.13,15.71 52.55,23.56 82.25,23.56 29.71,0 56.98,-7.85 81.83,-23.56 24.85,-15.71 44.41,-37.13 58.7,-64.26 14.28,-27.14 21.42,-57.27 21.42,-90.4 0,-32.56 -7.14,-62.41 -21.42,-89.54 -14.29,-27.13 -33.85,-48.41 -58.7,-63.84 -24.85,-15.42 -52.12,-23.13 -81.83,-23.13z"/>
     <path class="fil5" d="M9009.43 9860.55c32.96,0 62.76,7.36 89.42,22.06 26.64,14.7 47.56,34.97 62.75,60.82 15.19,25.85 22.78,54.77 22.78,86.75 0,31.99 -7.67,60.91 -23.02,86.75 -15.35,25.85 -36.43,46.13 -63.24,60.83 -26.82,14.7 -56.86,22.05 -90.14,22.05l-136.67 0 0 -339.26 138.12 0zm0.97 297.1c23.59,0 44.99,-5.5 64.22,-16.48 19.22,-10.99 34.41,-26.17 45.55,-45.56 11.14,-19.39 16.71,-41.03 16.71,-64.94 0,-24.24 -5.65,-46.04 -16.95,-65.43 -11.31,-19.39 -26.74,-34.65 -46.28,-45.8 -19.55,-11.15 -41.28,-16.72 -65.19,-16.72l-90.63 0 0 254.93 92.57 0zm240.38 -297.1l235.53 0 0 42.17 -189.01 0 0 104.68 169.14 0 0 42.17 -169.14 0 0 108.08 194.83 0 0 42.16 -241.35 0 0 -339.26zm695.46 339.26l-35.86 -82.39 -178.84 0 -35.37 82.39 -48.95 0 150.72 -339.26 48.47 0 150.24 339.26 -50.41 0zm-196.28 -124.56l142.49 0 -71.73 -164.78 -70.76 164.78zm252.51 -214.7l265.1 0 0 42.65 -109.53 0 0 296.61 -46.53 0 0 -296.61 -109.04 0 0 -42.65zm318.41 0l46.52 0 0 339.26 -46.52 0 0 -339.26zm97.41 0l49.92 0 111.96 287.4 111.95 -287.4 48.95 0 -137.64 339.26 -48.47 0 -136.67 -339.26zm373.67 0l46.52 0 0 339.26 -46.52 0 0 -339.26zm281.57 0c32.96,0 62.76,7.36 89.42,22.06 26.65,14.7 47.57,34.97 62.76,60.82 15.19,25.85 22.78,54.77 22.78,86.75 0,31.99 -7.67,60.91 -23.02,86.75 -15.35,25.85 -36.43,46.13 -63.25,60.83 -26.82,14.7 -56.86,22.05 -90.14,22.05l-136.67 0 0 -339.26 138.12 0zm0.97 297.1c23.59,0 44.99,-5.5 64.22,-16.48 19.22,-10.99 34.41,-26.17 45.55,-45.56 11.15,-19.39 16.72,-41.03 16.72,-64.94 0,-24.24 -5.65,-46.04 -16.96,-65.43 -11.31,-19.39 -26.74,-34.65 -46.28,-45.8 -19.55,-11.15 -41.28,-16.72 -65.19,-16.72l-90.63 0 0 254.93 92.57 0zm492.39 42.16l-35.86 -82.39 -178.83 0 -35.38 82.39 -48.95 0 150.73 -339.26 48.46 0 150.24 339.26 -50.41 0zm-196.27 -124.56l142.48 0 -71.73 -164.78 -70.75 164.78zm434.24 -214.7c32.96,0 62.76,7.36 89.42,22.06 26.65,14.7 47.57,34.97 62.76,60.82 15.19,25.85 22.78,54.77 22.78,86.75 0,31.99 -7.67,60.91 -23.02,86.75 -15.35,25.85 -36.43,46.13 -63.25,60.83 -26.82,14.7 -56.86,22.05 -90.14,22.05l-136.67 0 0 -339.26 138.12 0zm0.97 297.1c23.59,0 44.99,-5.5 64.22,-16.48 19.22,-10.99 34.41,-26.17 45.55,-45.56 11.15,-19.39 16.72,-41.03 16.72,-64.94 0,-24.24 -5.65,-46.04 -16.96,-65.43 -11.31,-19.39 -26.74,-34.65 -46.28,-45.8 -19.55,-11.15 -41.28,-16.72 -65.19,-16.72l-90.63 0 0 254.93 92.57 0zm240.38 -297.1l235.53 0 0 42.17 -189.01 0 0 104.68 169.14 0 0 42.17 -169.14 0 0 108.08 194.83 0 0 42.16 -241.35 0 0 -339.26zm443.46 0l220.99 0 -0.49 42.17 -173.98 0 0 111.47 156.53 0 0 42.16 -156.53 0 0 143.46 -46.52 0 0 -339.26zm275.27 0l46.52 0 0 339.26 -46.52 0 0 -339.26zm49.91 -97.89l46.53 20.35 -60.1 47.5 -38.28 -4.85 51.85 -63zm291.77 168.65c-15.84,-10.01 -32.23,-17.52 -49.2,-22.53 -16.96,-5.01 -32.55,-7.51 -46.76,-7.51 -19.71,0 -35.46,3.79 -47.26,11.38 -11.79,7.6 -17.69,18.02 -17.69,31.26 0,11.96 3.56,21.73 10.67,29.33 7.1,7.59 15.83,13.57 26.17,17.93 10.34,4.36 24.71,9.45 43.13,15.26 22.94,7.11 41.52,13.9 55.74,20.36 14.21,6.46 26.33,16.07 36.34,28.84 10.02,12.76 15.03,29.64 15.03,50.64 0,19.39 -5.25,36.35 -15.75,50.89 -10.5,14.54 -25.2,25.77 -44.11,33.68 -18.9,7.92 -40.63,11.88 -65.18,11.88 -24.88,0 -49.11,-4.85 -72.7,-14.54 -23.59,-9.69 -43.94,-22.62 -61.07,-38.77l20.84 -40.23c16.16,15.83 34.33,28.03 54.53,36.59 20.19,8.56 39.82,12.84 58.88,12.84 22.62,0 40.47,-4.44 53.56,-13.32 13.08,-8.89 19.63,-20.92 19.63,-36.11 0,-11.95 -3.56,-21.81 -10.67,-29.56 -7.11,-7.76 -16.07,-13.9 -26.9,-18.42 -10.82,-4.52 -25.44,-9.53 -43.86,-15.02 -22.61,-6.79 -41.03,-13.41 -55.25,-19.87 -14.21,-6.47 -26.25,-16 -36.1,-28.6 -9.86,-12.6 -14.78,-29.24 -14.78,-49.92 0,-18.09 5,-34.09 15.02,-47.98 10.02,-13.89 24.07,-24.55 42.16,-31.99 18.1,-7.43 39.1,-11.14 63.01,-11.14 20.35,0 40.31,2.99 59.85,8.96 19.55,5.98 36.92,13.98 52.1,23.99l-19.38 41.68zm100.31 -70.76l46.52 0 0 339.26 -46.52 0 0 -339.26zm389.17 81.43c-12.92,-13.57 -27.95,-24.16 -45.07,-31.75 -17.12,-7.59 -34.73,-11.39 -52.83,-11.39 -23.91,0 -45.88,5.82 -65.91,17.45 -20.03,11.63 -35.86,27.38 -47.49,47.25 -11.64,19.87 -17.45,41.76 -17.45,65.67 0,23.59 5.81,45.4 17.45,65.43 11.63,20.03 27.46,35.87 47.49,47.5 20.03,11.63 42,17.44 65.91,17.44 17.77,0 35.22,-3.63 52.35,-10.9 17.12,-7.27 32.31,-17.21 45.55,-29.81l28.11 30.54c-17.12,16.8 -36.99,29.96 -59.61,39.5 -22.62,9.53 -45.56,14.29 -68.82,14.29 -32.31,0 -61.87,-7.67 -88.69,-23.02 -26.82,-15.35 -47.98,-36.27 -63.49,-62.76 -15.51,-26.49 -23.26,-55.74 -23.26,-87.72 0,-31.67 7.83,-60.66 23.5,-87 15.67,-26.33 37.08,-47.09 64.22,-62.27 27.14,-15.19 57.03,-22.78 89.66,-22.78 23.58,0 46.44,4.44 68.58,13.32 22.13,8.89 41.27,21.41 57.43,37.57l-27.63 33.44zm345.06 257.83l-35.86 -82.39 -178.84 0 -35.37 82.39 -48.95 0 150.72 -339.26 48.47 0 150.24 339.26 -50.41 0zm-196.28 -124.56l142.49 0 -71.73 -164.78 -70.76 164.78zm423.11 -214.7l235.52 0 0 42.17 -189 0 0 104.68 169.13 0 0 42.17 -169.13 0 0 108.08 194.82 0 0 42.16 -241.34 0 0 -339.26zm689.16 81.43c-12.92,-13.57 -27.95,-24.16 -45.07,-31.75 -17.12,-7.59 -34.73,-11.39 -52.83,-11.39 -23.91,0 -45.88,5.82 -65.91,17.45 -20.03,11.63 -35.86,27.38 -47.49,47.25 -11.64,19.87 -17.45,41.76 -17.45,65.67 0,23.59 5.81,45.4 17.45,65.43 11.63,20.03 27.46,35.87 47.49,47.5 20.03,11.63 42,17.44 65.91,17.44 17.77,0 35.22,-3.63 52.35,-10.9 17.12,-7.27 32.31,-17.21 45.55,-29.81l28.1 30.54c-17.12,16.8 -36.98,29.96 -59.6,39.5 -22.62,9.53 -45.56,14.29 -68.82,14.29 -32.31,0 -61.87,-7.67 -88.69,-23.02 -26.82,-15.35 -47.98,-36.27 -63.49,-62.76 -15.51,-26.49 -23.26,-55.74 -23.26,-87.72 0,-31.67 7.83,-60.66 23.5,-87 15.67,-26.33 37.08,-47.09 64.22,-62.27 27.14,-15.19 57.03,-22.78 89.66,-22.78 23.58,0 46.44,4.44 68.58,13.32 22.13,8.89 41.26,21.41 57.42,37.57l-27.62 33.44zm241.35 -84.33c32.63,0 62.6,7.59 89.9,22.78 27.3,15.18 48.87,35.94 64.7,62.27 15.83,26.34 23.75,55.33 23.75,87 0,31.66 -7.92,60.82 -23.75,87.48 -15.83,26.65 -37.4,47.65 -64.7,63 -27.3,15.35 -57.27,23.02 -89.9,23.02 -32.64,0 -62.6,-7.67 -89.9,-23.02 -27.31,-15.35 -48.87,-36.35 -64.71,-63 -15.83,-26.66 -23.74,-55.82 -23.74,-87.48 0,-31.67 7.91,-60.66 23.74,-87 15.84,-26.33 37.32,-47.09 64.46,-62.27 27.14,-15.19 57.19,-22.78 90.15,-22.78zm0.48 41.68c-23.58,0 -45.47,5.81 -65.67,17.44 -20.19,11.64 -36.27,27.39 -48.22,47.26 -11.95,19.87 -17.93,41.76 -17.93,65.67 0,23.91 5.98,45.88 17.93,65.91 11.95,20.03 28.03,35.95 48.22,47.74 20.2,11.79 42.09,17.69 65.67,17.69 23.59,0 45.32,-5.9 65.19,-17.69 19.87,-11.79 35.7,-27.71 47.49,-47.74 11.8,-20.03 17.69,-42 17.69,-65.91 0,-23.91 -5.89,-45.8 -17.69,-65.67 -11.79,-19.87 -27.62,-35.62 -47.49,-47.26 -19.87,-11.63 -41.6,-17.44 -65.19,-17.44zm244.76 -38.78l55.25 0 124.06 238.45 123.1 -238.45 55.73 0 0 339.26 -43.62 0 -0.48 -270.92 -120.68 235.06 -28.59 0 -121.64 -235.06 0 270.92 -43.13 0 0 -339.26zm585.93 0c42.33,0 75.04,10.02 98.13,30.05 23.1,20.04 34.65,48.15 34.65,84.33 0,37.81 -11.63,67.13 -34.89,87.97 -23.25,20.84 -55.89,31.26 -97.89,31.26l-84.33 0 0 105.65 -46.52 0 0 -339.26 130.85 0zm-1.94 191.44c29.08,0 51.37,-6.38 66.88,-19.14 15.51,-12.76 23.26,-31.58 23.26,-56.46 0,-24.24 -7.75,-42.57 -23.26,-55.01 -15.51,-12.44 -37.8,-18.66 -66.88,-18.66l-82.39 0.48 0 148.79 82.39 0zm344.58 -194.34c32.63,0 62.6,7.59 89.9,22.78 27.3,15.18 48.87,35.94 64.7,62.27 15.83,26.34 23.75,55.33 23.75,87 0,31.66 -7.92,60.82 -23.75,87.48 -15.83,26.65 -37.4,47.65 -64.7,63 -27.3,15.35 -57.27,23.02 -89.9,23.02 -32.64,0 -62.6,-7.67 -89.9,-23.02 -27.31,-15.35 -48.87,-36.35 -64.71,-63 -15.83,-26.66 -23.74,-55.82 -23.74,-87.48 0,-31.67 7.91,-60.66 23.74,-87 15.84,-26.33 37.32,-47.09 64.46,-62.27 27.14,-15.19 57.19,-22.78 90.15,-22.78zm0.48 41.68c-23.58,0 -45.47,5.81 -65.67,17.44 -20.19,11.64 -36.27,27.39 -48.22,47.26 -11.95,19.87 -17.93,41.76 -17.93,65.67 0,23.91 5.98,45.88 17.93,65.91 11.95,20.03 28.03,35.95 48.22,47.74 20.2,11.79 42.09,17.69 65.67,17.69 23.59,0 45.32,-5.9 65.19,-17.69 19.87,-11.79 35.7,-27.71 47.49,-47.74 11.8,-20.03 17.69,-42 17.69,-65.91 0,-23.91 -5.89,-45.8 -17.69,-65.67 -11.79,-19.87 -27.62,-35.62 -47.49,-47.26 -19.87,-11.63 -41.6,-17.44 -65.19,-17.44zm463.81 300.48l-67.37 -106.62c-7.75,0.64 -14.05,0.97 -18.9,0.97l-86.26 0 0 105.65 -46.52 0 0 -339.26 132.78 0c42.97,0 76.17,9.94 99.59,29.81 23.43,19.87 35.14,48.06 35.14,84.57 0,27.47 -6.38,50.57 -19.14,69.31 -12.76,18.74 -31.1,32.31 -55.01,40.71l79 114.86 -53.31 0zm-86.27 -147.82c29.08,0 51.37,-6.38 66.88,-19.14 15.51,-12.76 23.26,-31.58 23.26,-56.46 0,-24.24 -7.75,-42.57 -23.26,-55.01 -15.51,-12.44 -37.8,-18.66 -66.88,-18.66l-86.26 0 0 149.27 86.26 0zm173.99 -191.44l265.1 0 0 42.65 -109.53 0 0 296.61 -46.53 0 0 -296.61 -109.04 0 0 -42.65zm570.42 339.26l-35.86 -82.39 -178.84 0 -35.37 82.39 -48.95 0 150.72 -339.26 48.47 0 150.24 339.26 -50.41 0zm-196.28 -124.56l142.49 0 -71.73 -164.78 -70.76 164.78zm296.13 -214.7l55.25 0 124.07 238.45 123.09 -238.45 55.73 0 0 339.26 -43.62 0 -0.48 -270.92 -120.67 235.06 -28.59 0 -121.65 -235.06 0 270.92 -43.13 0 0 -339.26zm455.08 0l235.53 0 0 42.17 -189.01 0 0 104.68 169.14 0 0 42.17 -169.14 0 0 108.08 194.83 0 0 42.16 -241.35 0 0 -339.26zm557.82 0l46.04 0 0 339.26 -47.01 0 -193.85 -262.68 0 262.68 -46.52 0 0 -339.26 47.01 0 194.33 263.17 0 -263.17zm99.84 0l265.1 0 0 42.65 -109.53 0 0 296.61 -46.53 0 0 -296.61 -109.04 0 0 -42.65zm466.71 -2.9c32.63,0 62.6,7.59 89.9,22.78 27.3,15.18 48.87,35.94 64.7,62.27 15.83,26.34 23.75,55.33 23.75,87 0,31.66 -7.92,60.82 -23.75,87.48 -15.83,26.65 -37.4,47.65 -64.7,63 -27.3,15.35 -57.27,23.02 -89.9,23.02 -32.64,0 -62.6,-7.67 -89.9,-23.02 -27.31,-15.35 -48.87,-36.35 -64.71,-63 -15.83,-26.66 -23.74,-55.82 -23.74,-87.48 0,-31.67 7.91,-60.66 23.74,-87 15.84,-26.33 37.32,-47.09 64.46,-62.27 27.14,-15.19 57.19,-22.78 90.15,-22.78zm0.48 41.68c-23.58,0 -45.47,5.81 -65.67,17.44 -20.19,11.64 -36.27,27.39 -48.22,47.26 -11.95,19.87 -17.93,41.76 -17.93,65.67 0,23.91 5.98,45.88 17.93,65.91 11.95,20.03 28.03,35.95 48.22,47.74 20.2,11.79 42.09,17.69 65.67,17.69 23.59,0 45.32,-5.9 65.19,-17.69 19.87,-11.79 35.7,-27.71 47.49,-47.74 11.8,-20.03 17.69,-42 17.69,-65.91 0,-23.91 -5.89,-45.8 -17.69,-65.67 -11.79,-19.87 -27.62,-35.62 -47.49,-47.26 -19.87,-11.63 -41.6,-17.44 -65.19,-17.44zm569.95 31.98c-15.84,-10.01 -32.23,-17.52 -49.2,-22.53 -16.96,-5.01 -32.55,-7.51 -46.76,-7.51 -19.71,0 -35.46,3.79 -47.26,11.38 -11.79,7.6 -17.69,18.02 -17.69,31.26 0,11.96 3.56,21.73 10.67,29.33 7.1,7.59 15.83,13.57 26.17,17.93 10.34,4.36 24.71,9.45 43.13,15.26 22.94,7.11 41.52,13.9 55.74,20.36 14.21,6.46 26.33,16.07 36.34,28.84 10.02,12.76 15.03,29.64 15.03,50.64 0,19.39 -5.25,36.35 -15.75,50.89 -10.5,14.54 -25.2,25.77 -44.11,33.68 -18.9,7.92 -40.63,11.88 -65.18,11.88 -24.88,0 -49.11,-4.85 -72.7,-14.54 -23.58,-9.69 -43.93,-22.62 -61.06,-38.77l20.84 -40.23c16.16,15.83 34.32,28.03 54.52,36.59 20.19,8.56 39.82,12.84 58.88,12.84 22.62,0 40.47,-4.44 53.56,-13.32 13.08,-8.89 19.63,-20.92 19.63,-36.11 0,-11.95 -3.56,-21.81 -10.67,-29.56 -7.11,-7.76 -16.07,-13.9 -26.9,-18.42 -10.82,-4.52 -25.44,-9.53 -43.86,-15.02 -22.61,-6.79 -41.03,-13.41 -55.25,-19.87 -14.21,-6.47 -26.24,-16 -36.09,-28.6 -9.86,-12.6 -14.78,-29.24 -14.78,-49.92 0,-18.09 5,-34.09 15.02,-47.98 10.02,-13.89 24.06,-24.55 42.15,-31.99 18.1,-7.43 39.1,-11.14 63.01,-11.14 20.35,0 40.31,2.99 59.85,8.96 19.55,5.98 36.92,13.98 52.1,23.99l-19.38 41.68zm100.32 -70.76l235.53 0 0 42.17 -189.01 0 0 104.68 169.14 0 0 42.17 -169.14 0 0 108.08 194.83 0 0 42.16 -241.35 0 0 -339.26zm454.59 0c32.96,0 62.76,7.36 89.42,22.06 26.65,14.7 47.57,34.97 62.76,60.82 15.19,25.85 22.78,54.77 22.78,86.75 0,31.99 -7.67,60.91 -23.02,86.75 -15.35,25.85 -36.43,46.13 -63.25,60.83 -26.82,14.7 -56.86,22.05 -90.14,22.05l-136.67 0 0 -339.26 138.12 0zm0.97 297.1c23.59,0 44.99,-5.5 64.22,-16.48 19.22,-10.99 34.41,-26.17 45.55,-45.56 11.15,-19.39 16.72,-41.03 16.72,-64.94 0,-24.24 -5.65,-46.04 -16.96,-65.43 -11.31,-19.39 -26.74,-34.65 -46.28,-45.8 -19.55,-11.15 -41.28,-16.72 -65.19,-16.72l-90.63 0 0 254.93 92.57 0zm240.39 -297.1l235.52 0 0 42.17 -189 0 0 104.68 169.13 0 0 42.17 -169.13 0 0 108.08 194.82 0 0 42.16 -241.34 0 0 -339.26zm557.82 0l46.04 0 0 339.26 -47.01 0 -193.86 -262.68 0 262.68 -46.52 0 0 -339.26 47.01 0 194.34 263.17 0 -263.17zm99.84 0l265.09 0 0 42.65 -109.53 0 0 296.61 -46.53 0 0 -296.61 -109.03 0 0 -42.65zm570.42 339.26l-35.86 -82.39 -178.84 0 -35.38 82.39 -48.95 0 150.73 -339.26 48.47 0 150.24 339.26 -50.41 0zm-196.28 -124.56l142.49 0 -71.73 -164.78 -70.76 164.78zm98.38 -312.59l46.53 20.35 -60.1 47.5 -38.28 -4.85 51.85 -63zm416.8 437.15l-67.37 -106.62c-7.75,0.64 -14.05,0.97 -18.9,0.97l-86.27 0 0 105.65 -46.52 0 0 -339.26 132.79 0c42.97,0 76.17,9.94 99.59,29.81 23.43,19.87 35.14,48.06 35.14,84.57 0,27.47 -6.38,50.57 -19.14,69.31 -12.76,18.74 -31.1,32.31 -55.01,40.71l79 114.86 -53.31 0zm-86.27 -147.82c29.08,0 51.37,-6.38 66.88,-19.14 15.51,-12.76 23.26,-31.58 23.26,-56.46 0,-24.24 -7.75,-42.57 -23.26,-55.01 -15.51,-12.44 -37.8,-18.66 -66.88,-18.66l-86.27 0 0 149.27 86.27 0zm217.61 -191.44l46.52 0 0 339.26 -46.52 0 0 -339.26zm291.75 -2.9c32.63,0 62.6,7.59 89.9,22.78 27.3,15.18 48.87,35.94 64.7,62.27 15.83,26.34 23.75,55.33 23.75,87 0,31.66 -7.92,60.82 -23.75,87.48 -15.83,26.65 -37.4,47.65 -64.7,63 -27.3,15.35 -57.27,23.02 -89.9,23.02 -32.64,0 -62.6,-7.67 -89.89,-23.02 -27.31,-15.35 -48.87,-36.35 -64.71,-63 -15.83,-26.66 -23.74,-55.82 -23.74,-87.48 0,-31.67 7.91,-60.66 23.74,-87 15.84,-26.33 37.32,-47.09 64.46,-62.27 27.13,-15.19 57.18,-22.78 90.14,-22.78zm0.48 41.68c-23.58,0 -45.47,5.81 -65.67,17.44 -20.18,11.64 -36.26,27.39 -48.21,47.26 -11.95,19.87 -17.93,41.76 -17.93,65.67 0,23.91 5.98,45.88 17.93,65.91 11.95,20.03 28.03,35.95 48.21,47.74 20.2,11.79 42.09,17.69 65.67,17.69 23.59,0 45.32,-5.9 65.19,-17.69 19.87,-11.79 35.7,-27.71 47.49,-47.74 11.8,-20.03 17.69,-42 17.69,-65.91 0,-23.91 -5.89,-45.8 -17.69,-65.67 -11.79,-19.87 -27.62,-35.62 -47.49,-47.26 -19.87,-11.63 -41.6,-17.44 -65.19,-17.44z"/>
    </g>
   </g>
  </g>
 </g>
</svg>
