<?xml version="1.0" encoding="UTF-8"?>
<!DOCTYPE svg PUBLIC "-//W3C//DTD SVG 1.1//EN" "http://www.w3.org/Graphics/SVG/1.1/DTD/svg11.dtd">
<!-- Creator: CorelDRAW -->
<svg xmlns="http://www.w3.org/2000/svg" xml:space="preserve" width="70.2732mm" height="28.1488mm" version="1.1" style="shape-rendering:geometricPrecision; text-rendering:geometricPrecision; image-rendering:optimizeQuality; fill-rule:evenodd; clip-rule:evenodd"
viewBox="0 0 7027.32 2814.88"
 xmlns:xlink="http://www.w3.org/1999/xlink"
 xmlns:xodm="http://www.corel.com/coreldraw/odm/2003">
 <defs>
  <style type="text/css">
   <![CDATA[
    .fil1 {fill:#0D8187}
    .fil0 {fill:#04949C;fill-rule:nonzero}
   ]]>
  </style>
    <clipPath id="id0">
     <path d="M7027.29 2821.34"/>
    </clipPath>
    <clipPath id="id1">
     <path d="M7027.29 2821.34"/>
    </clipPath>
    <clipPath id="id2">
     <path d="M7027.31 2821.32"/>
    </clipPath>
    <clipPath id="id3">
     <path d="M7027.31 2821.34"/>
    </clipPath>
    <clipPath id="id4">
     <path d="M7027.31 2821.34"/>
    </clipPath>
    <clipPath id="id5">
     <path d="M7027.29 2821.32"/>
    </clipPath>
    <clipPath id="id6">
     <path d="M7027.31 2821.32"/>
    </clipPath>
    <clipPath id="id7">
     <path d="M7027.31 2821.35"/>
    </clipPath>
    <clipPath id="id8">
     <path d="M7027.32 2821.32"/>
    </clipPath>
    <clipPath id="id9">
     <path d="M7027.31 2821.32"/>
    </clipPath>
    <clipPath id="id10">
     <path d="M7027.29 2821.34"/>
    </clipPath>
    <clipPath id="id11">
     <path d="M7027.29 2821.32"/>
    </clipPath>
    <clipPath id="id12">
     <path d="M7027.29 2821.35"/>
    </clipPath>
 </defs>
 <g id="Camada_x0020_1">
  <metadata id="CorelCorpID_0Corel-Layer"/>
  <g id="_2173271988896">
   <g style="clip-path:url(#id0)">
    <image x="4247.14" y="-6865.14" width="1740.31" height="582.96" xlink:href="parte2_Images\parte2_ImgID1.png"/>
   </g>
   <g style="clip-path:url(#id1)">
    <image x="4534.31" y="-6289.01" width="1453.04" height="871.06" xlink:href="parte2_Images\parte2_ImgID2.png"/>
   </g>
   <g style="clip-path:url(#id2)">
    <image x="4824.06" y="-5424.51" width="1163.29" height="1159.99" xlink:href="parte2_Images\parte2_ImgID3.png"/>
   </g>
   <g style="clip-path:url(#id3)">
    <image x="5113.03" y="-4271.66" width="874.36" height="3752.86" xlink:href="parte2_Images\parte2_ImgID4.png"/>
   </g>
   <g style="clip-path:url(#id4)">
    <image x="4823.95" y="-1101.32" width="295.69" height="3754.52" xlink:href="parte2_Images\parte2_ImgID5.png"/>
   </g>
   <g style="clip-path:url(#id5)">
    <image x="4534.21" y="-525.46" width="296.52" height="3178.32" xlink:href="parte2_Images\parte2_ImgID6.png"/>
   </g>
   <g style="clip-path:url(#id6)">
    <image x="5113.03" y="-525.46" width="874.36" height="3178.32" xlink:href="parte2_Images\parte2_ImgID7.png"/>
   </g>
   <g style="clip-path:url(#id7)">
    <image x="4247.01" y="51.06" width="294.04" height="2602.12" xlink:href="parte2_Images\parte2_ImgID8.png"/>
   </g>
   <g style="clip-path:url(#id8)">
    <image x="3958.08" y="340.5" width="295.69" height="2312.38" xlink:href="parte2_Images\parte2_ImgID9.png"/>
   </g>
   <g style="clip-path:url(#id9)">
    <image x="3379.43" y="916.84" width="585.44" height="1736.18" xlink:href="parte2_Images\parte2_ImgID10.png"/>
   </g>
   <g style="clip-path:url(#id10)">
    <image x="3090.43" y="1204.05" width="295.69" height="1448.91" xlink:href="parte2_Images\parte2_ImgID11.png"/>
   </g>
   <g style="clip-path:url(#id11)">
    <image x="2800.65" y="1492.99" width="296.52" height="1159.99" xlink:href="parte2_Images\parte2_ImgID12.png"/>
   </g>
   <g style="clip-path:url(#id12)">
    <image x="2513.44" y="1780.43" width="294.87" height="872.71" xlink:href="parte2_Images\parte2_ImgID13.png"/>
   </g>
   <path class="fil0" d="M-0.01 2821.35c285.56,-543.64 968.43,-1129.03 3215.68,-1052.14 2247.26,76.81 3811.65,-1424.09 3811.65,-1424.09l0 2476.23 -7027.33 0z"/>
   <path class="fil1" d="M472.27 2657.11l0.02 0 0 -0.02c27.85,-26.57 57.47,-52.74 89.02,-78.42l0.05 0 0 -0.05c63.69,-51.83 135.33,-101.65 216.5,-148.67l0.04 0 0 -0.03c1.88,-1.08 3.79,-2.16 5.67,-3.24l0.05 0 0 -0.03c10.99,-6.31 22.17,-12.56 33.5,-18.76 30.05,-16.46 61.31,-32.55 93.92,-48.22l0.05 0 0 -0.02c9.13,-4.39 18.38,-8.73 27.71,-13.05l0.08 0 0 -0.03c13.66,-6.32 27.5,-12.59 41.62,-18.76l0.05 0 0 -0.03c1.87,-0.81 3.8,-1.61 5.68,-2.43l0.04 0 0 -0.01c9.45,-4.11 18.93,-8.2 28.59,-12.24l0.01 0 0 -0.01c21.25,-8.88 43.1,-17.58 65.37,-26.14 3.53,-1.36 6.97,-2.74 10.53,-4.09l0.09 0 0 -0.03c12.33,-4.68 24.84,-9.29 37.49,-13.86l0.1 0 0 -0.03c13.71,-4.96 27.59,-9.85 41.67,-14.68l0.01 0 2.33 -0.81 0.12 0 0 -0.04 2.32 -0.78 0.13 0 0 -0.04 2.33 -0.78 0.12 0 0 -0.04 2.33 -0.77 0.12 0 0 -0.04c9.7,-3.29 19.48,-6.55 29.36,-9.77l0.06 0 0 -0.02 2.39 -0.8 0.06 0 0 -0.01 2.4 -0.8 0.05 0 0 -0.02c5.09,-1.65 10.33,-3.25 15.47,-4.89l0.05 0 0 -0.01c9.45,-3.01 18.86,-6.03 28.48,-8.97l0.13 0 0 -0.04c2.66,-0.82 5.41,-1.6 8.08,-2.42l0.09 0 0 -0.02c2.68,-0.82 5.42,-1.62 8.12,-2.43l0.05 0 0 -0.01 8.16 -2.44 0.01 0 0 0c15.82,-4.71 31.85,-9.34 48.11,-13.89l0.1 0 0 -0.03c1.9,-0.53 3.78,-1.07 5.69,-1.6l0.03 0 0 -0.01c12.91,-3.59 26,-7.12 39.2,-10.62l0.02 0 0 0c4.1,-1.09 8.12,-2.19 12.24,-3.27l0.02 0 0 0c1.03,-0.27 2.02,-0.55 3.05,-0.81l0.22 0 0 -0.06c19.24,-5 38.84,-9.86 58.69,-14.65l0.14 0 0 -0.04c13.69,-3.3 27.45,-6.57 41.42,-9.77l0.25 0 0 -0.05c2.34,-0.54 4.76,-1.05 7.11,-1.58l0.25 0 0 -0.06c14.55,-3.3 29.21,-6.56 44.08,-9.75l0.04 0 0 -0.01c1.28,-0.27 2.61,-0.53 3.89,-0.8l0.2 0 0 -0.05c5.12,-1.09 10.35,-2.14 15.51,-3.22l0.02 0 0 -0.01c21.4,-4.47 43.11,-8.83 65.17,-13.07l0.2 0 0 -0.04 4 -0.78 0.08 0 0 -0.01c14.53,-2.78 29.25,-5.48 44.07,-8.15l0.06 0 0 -0.02c2.99,-0.54 5.95,-1.08 8.95,-1.62l0.04 0 0 -0.01c3.01,-0.53 5.94,-1.09 8.96,-1.62l0.02 0 0 -0.01c1.52,-0.26 3.01,-0.54 4.53,-0.81l0.38 0 0 -0.07c12.64,-2.21 25.51,-4.33 38.36,-6.47l0.04 0 0 0 4.81 -0.81 0.09 0 0 -0.02c1.6,-0.26 3.16,-0.54 4.76,-0.8l0.15 0 0 -0.03c1.58,-0.26 3.11,-0.53 4.7,-0.79l0.2 0 0 -0.03c5.06,-0.83 10.26,-1.61 15.36,-2.42l0.17 0 0 -0.03c12.07,-1.92 24.17,-3.83 36.43,-5.69l0.34 0 0 -0.05c1.64,-0.25 3.23,-0.52 4.88,-0.77l0.02 0 0 0c1.85,-0.28 3.74,-0.54 5.59,-0.81l0.13 0 0 -0.02c1.83,-0.28 3.71,-0.53 5.54,-0.8l0.18 0 0 -0.03 5.49 -0.79 0.23 0 0 -0.03c15.02,-2.21 30.09,-4.4 45.39,-6.51l0.37 0 0 -0.05c3.94,-0.54 7.98,-1.04 11.94,-1.58l0.31 0 0 -0.04c3.99,-0.54 8.02,-1.06 12.03,-1.59l0.23 0 0 -0.03c14.58,-1.94 29.23,-3.85 44.06,-5.69l0.07 0 0 -0.01c6.68,-0.83 13.43,-1.63 20.16,-2.45l0.26 0 0 -0.03 6.49 -0.78 0.05 0 0 -0.01c6.75,-0.81 13.37,-1.66 20.17,-2.44l0.26 0 0 -0.03c17.02,-1.97 34.29,-3.85 51.63,-5.69l0.67 0 0 -0.08c2.27,-0.24 4.48,-0.5 6.75,-0.74l0.6 0 0 -0.07 7.33 -0.75 0.03 0 0 0c16.26,-1.69 32.7,-3.32 49.24,-4.9l0.6 0 0 -0.06c2.55,-0.25 5.04,-0.51 7.6,-0.76l0.57 0 0 -0.06c2.81,-0.26 5.7,-0.49 8.52,-0.76l0.47 0 0 -0.04c2.88,-0.26 5.82,-0.51 8.71,-0.77l0.28 0 0 -0.03c12.07,-1.1 24.17,-2.19 36.39,-3.24l0.38 0 0 -0.04c2.95,-0.25 5.83,-0.53 8.79,-0.78l1.02 0 0 -0.09c3.02,-0.25 6.12,-0.48 9.15,-0.73l0.65 0 0 -0.05c3.2,-0.26 6.46,-0.5 9.67,-0.76l0.14 0 0 -0.01c17.29,-1.41 34.64,-2.79 52.24,-4.08l0.87 0 0 -0.06c3.62,-0.26 7.32,-0.5 10.95,-0.76l0.49 0 0 -0.03c3.76,-0.27 7.57,-0.52 11.34,-0.78l0.1 0 0 -0.01c7.83,-0.55 15.64,-1.1 23.53,-1.63l0.17 0 0 -0.01c17.24,-1.14 34.69,-2.22 52.21,-3.25l0.08 0 0 -0.01c4.55,-0.27 9.08,-0.55 13.65,-0.81l0.24 0 0 -0.02c4.52,-0.26 8.96,-0.55 13.49,-0.8l0.4 0 0 -0.02c21.03,-1.17 42.33,-2.24 63.77,-3.25l0.79 0 0 -0.04c5.51,-0.26 10.99,-0.53 16.53,-0.78l1.45 0 0 -0.06c19.22,-0.86 38.61,-1.65 58.16,-2.39l2.3 0 0 -0.09c6.98,-0.26 14.06,-0.48 21.08,-0.72l0.99 0 0 -0.04c16.44,-0.57 32.93,-1.12 49.61,-1.6l1.86 0 0 -0.06c9.93,-0.28 20.03,-0.5 30.04,-0.75l1.02 0 0 -0.03c25.79,-0.64 51.88,-1.17 78.23,-1.61l1.84 0 0 -0.03c19.03,-0.31 38.12,-0.59 57.44,-0.79l1.4 0 0 -0.01c98.76,-0.99 201.4,-0.49 308.06,1.58l0 0.07 4.23 0c11.27,0.22 22.8,0.54 34.17,0.8l0 0.02 0.64 0c21.44,0.48 43.02,1.02 64.73,1.62l0 0.01 0.24 0c23.77,0.65 47.72,1.38 71.94,2.2 2.65,0.09 5.26,0.12 7.9,0.2l0 0.05 1.99 0c8.35,0.27 16.64,0.39 24.98,0.63l0 0.19 7.54 0c10.29,0.27 20.6,0.56 30.86,0.77l0 0.04 1.75 0c50.69,1.02 100.99,1.25 150.95,0.82l3.37 0 0 -0.04c30.39,-0.28 60.64,-0.8 90.75,-1.59l3.23 0 0 -0.1c30.16,-0.81 60.19,-1.86 90.08,-3.17l3.07 0 0 -0.14c4.89,-0.22 9.78,-0.45 14.67,-0.68l0.85 0 0 -0.04c24.98,-1.18 49.87,-2.52 74.65,-4.04l2.16 0 0 -0.14c3.58,-0.22 7.16,-0.45 10.73,-0.68l1.53 0 0 -0.1c3.79,-0.24 7.58,-0.47 11.37,-0.72l0.07 0 0 0c22.55,-1.5 45.01,-3.14 67.4,-4.9l0.42 0 0 -0.04 9.7 -0.78 1.74 0 0 -0.14 8.41 -0.67 0.58 0 0 -0.05c24.23,-2.01 48.36,-4.18 72.39,-6.49l0.34 0 0 -0.03 8.05 -0.79 0.93 0 0 -0.09 7.46 -0.73 1.53 0 0 -0.15c2.28,-0.22 4.58,-0.43 6.86,-0.66l0.5 0 0 -0.05c25.05,-2.54 49.97,-5.27 74.8,-8.13l0.37 0 0 -0.04 6.76 -0.77 0.6 0 0 -0.07c2.18,-0.25 4.38,-0.49 6.56,-0.75l0.79 0 0 -0.09c2.12,-0.25 4.25,-0.47 6.37,-0.73l0.17 0 0 -0.02c21.62,-2.57 43.1,-5.33 64.54,-8.15l0.01 0c6.24,-0.82 12.5,-1.61 18.73,-2.45l0.07 0 0 -0.01c2.05,-0.28 4.12,-0.53 6.18,-0.81l0.35 0 0 -0.04c130.01,-17.7 256.69,-39.74 379.9,-65.33l0.07 0 0 -0.01c26.74,-5.55 53.31,-11.26 79.72,-17.15l0.36 0 0 -0.08 3.24 -0.73 0.03 0 0 -0.01c2.4,-0.54 4.79,-1.09 7.18,-1.63l0.17 0 0 -0.04c25.93,-5.83 51.7,-11.8 77.3,-17.94l0.33 0 0 -0.07 3.05 -0.74 0.22 0 0 -0.05 3.15 -0.77 0.12 0 0 -0.03 3.26 -0.79 0 0 0 0c30.74,-7.42 61.24,-15.04 91.49,-22.88l0.03 0 0 -0.01c22.7,-5.87 45.26,-11.87 67.69,-17.96l0.13 0 0 -0.04 8.87 -2.41 0.12 0 0 -0.04c22.48,-6.15 44.8,-12.4 66.99,-18.76l0.02 0 0 0 5.67 -1.63 0.05 0 0 -0.01 5.64 -1.63 0.08 0 0 -0.02 5.61 -1.61 0.11 0 0 -0.03c27.64,-8.02 55.09,-16.17 82.29,-24.48l0.24 0 0 -0.08c54.27,-16.59 107.69,-33.73 160.15,-51.4l0.01 0 0 -0.01c80.08,-26.98 157.97,-55.14 233.68,-84.16l0.01 0 0 -0.01c25.33,-9.7 50.36,-19.51 75.17,-29.4l0.01 0 0 -0.01 4.07 -1.63 0.02 0 0 -0.01 4.04 -1.62 0.04 0 0 -0.02c23.63,-9.45 47.02,-18.98 70.18,-28.58l0.1 0 0 -0.05c20.87,-8.65 41.55,-17.35 62.04,-26.1l0.06 0 0 -0.03 5.65 -2.42 0.07 0 0 -0.03 5.65 -2.42 0.07 0 0 -0.03c21.42,-9.21 42.62,-18.46 63.61,-27.76l0.12 0 0 -0.05c45.69,-20.24 90.37,-40.67 133.99,-61.23l0.02 0 0 -0.01c132.75,-62.58 255.81,-126.26 368.52,-188.75l0.01 0 0 0c20.23,-11.22 40.07,-22.38 59.62,-33.5l0.03 0 0 -0.02c215.38,-122.5 389.58,-238.53 517.24,-330.1l0 0 0 -0.01c89.01,-63.85 155.2,-115.68 196.92,-149.53l0.01 0 0 -0.01c7.21,-5.85 13.89,-11.32 19.61,-16.05l0 2058.07 -6703.26 0c43.35,-55.82 92.24,-110.83 148.21,-164.24z"/>
  </g>
 </g>
</svg>
