<?xml version="1.0" encoding="UTF-8"?>
<!DOCTYPE svg PUBLIC "-//W3C//DTD SVG 1.1//EN" "http://www.w3.org/Graphics/SVG/1.1/DTD/svg11.dtd">
<!-- Creator: CorelDRAW -->
<svg xmlns="http://www.w3.org/2000/svg" xml:space="preserve" width="70.2732mm" height="28.1488mm" version="1.1" style="shape-rendering:geometricPrecision; text-rendering:geometricPrecision; image-rendering:optimizeQuality; fill-rule:evenodd; clip-rule:evenodd"
viewBox="0 0 7027.32 2814.88"
 xmlns:xlink="http://www.w3.org/1999/xlink"
 xmlns:xodm="http://www.corel.com/coreldraw/odm/2003">
 <defs>
  <style type="text/css">
   <![CDATA[
    .fil1 {fill:#0D8187}
    .fil0 {fill:#04949C;fill-rule:nonzero}
   ]]>
  </style>
   <clipPath id="id0">
    <path d="M0.01 169.34"/>
   </clipPath>
   <clipPath id="id1">
    <path d="M0.01 169.34"/>
   </clipPath>
   <clipPath id="id2">
    <path d="M0.01 169.34"/>
   </clipPath>
   <clipPath id="id3">
    <path d="M0.01 169.34"/>
   </clipPath>
   <clipPath id="id4">
    <path d="M0.01 169.34"/>
   </clipPath>
   <clipPath id="id5">
    <path d="M0.01 169.34"/>
   </clipPath>
   <clipPath id="id6">
    <path d="M0.01 169.34"/>
   </clipPath>
   <clipPath id="id7">
    <path d="M0.01 169.34"/>
   </clipPath>
   <clipPath id="id8">
    <path d="M0.01 169.34"/>
   </clipPath>
   <clipPath id="id9">
    <path d="M0.01 169.34"/>
   </clipPath>
   <clipPath id="id10">
    <path d="M0.01 169.34"/>
   </clipPath>
   <clipPath id="id11">
    <path d="M0.01 169.34"/>
   </clipPath>
   <clipPath id="id12">
    <path d="M0.01 169.34"/>
   </clipPath>
 </defs>
 <g id="Camada_x0020_1">
  <metadata id="CorelCorpID_0Corel-Layer"/>
  <g style="clip-path:url(#id0)">
   <image transform="matrix(-49.3285 -0 -0 -16.5239 2780.16 9855.82)" x="0" y="0" width="35.28" height="35.28" xlink:href="parte1_Images\parte1_ImgID1.png"/>
  </g>
  <g style="clip-path:url(#id1)">
   <image transform="matrix(-41.1858 -0 -0 -24.69 2492.99 9279.69)" x="0" y="0" width="35.28" height="35.28" xlink:href="parte1_Images\parte1_ImgID2.png"/>
  </g>
  <g style="clip-path:url(#id2)">
   <image transform="matrix(-32.973 -0 -0 -32.8794 2203.26 8415.17)" x="0" y="0" width="35.28" height="35.28" xlink:href="parte1_Images\parte1_ImgID3.png"/>
  </g>
  <g style="clip-path:url(#id3)">
   <image transform="matrix(-24.7836 -0 -0 -106.374 1914.29 7262.34)" x="0" y="0" width="35.28" height="35.28" xlink:href="parte1_Images\parte1_ImgID4.png"/>
  </g>
  <g style="clip-path:url(#id4)">
   <image transform="matrix(-8.3813 -0 -0 -106.421 2203.37 4092)" x="0" y="0" width="35.28" height="35.28" xlink:href="parte1_Images\parte1_ImgID5.png"/>
  </g>
  <g style="clip-path:url(#id5)">
   <image transform="matrix(-8.4047 -0 -0 -90.0884 2493.09 3516.12)" x="0" y="0" width="35.28" height="35.28" xlink:href="parte1_Images\parte1_ImgID6.png"/>
  </g>
  <g style="clip-path:url(#id6)">
   <image transform="matrix(-24.7836 -0 -0 -90.0884 1914.29 3516.12)" x="0" y="0" width="35.28" height="35.28" xlink:href="parte1_Images\parte1_ImgID7.png"/>
  </g>
  <g style="clip-path:url(#id7)">
   <image transform="matrix(-8.3345 -0 -0 -73.7564 2780.31 2939.63)" x="0" y="0" width="35.28" height="35.28" xlink:href="parte1_Images\parte1_ImgID8.png"/>
  </g>
  <g style="clip-path:url(#id8)">
   <image transform="matrix(-8.3813 -0 -0 -65.5435 3069.25 2650.16)" x="0" y="0" width="35.28" height="35.28" xlink:href="parte1_Images\parte1_ImgID9.png"/>
  </g>
  <g style="clip-path:url(#id9)">
   <image transform="matrix(-16.5941 -0 -0 -49.2115 3647.89 2073.82)" x="0" y="0" width="35.28" height="35.28" xlink:href="parte1_Images\parte1_ImgID10.png"/>
  </g>
  <g style="clip-path:url(#id10)">
   <image transform="matrix(-8.3813 -0 -0 -41.0688 3936.87 1786.63)" x="0" y="0" width="35.28" height="35.28" xlink:href="parte1_Images\parte1_ImgID11.png"/>
  </g>
  <g style="clip-path:url(#id11)">
   <image transform="matrix(-8.4047 -0 -0 -32.8794 4226.65 1497.67)" x="0" y="0" width="35.28" height="35.28" xlink:href="parte1_Images\parte1_ImgID12.png"/>
  </g>
  <g style="clip-path:url(#id12)">
   <image transform="matrix(-8.3579 -0 -0 -24.7368 4513.86 1210.26)" x="0" y="0" width="35.28" height="35.28" xlink:href="parte1_Images\parte1_ImgID13.png"/>
  </g>
  <g id="_2173162823984">
   <path class="fil0" d="M7027.32 6.48c-285.56,543.64 -968.43,1129.03 -3215.68,1052.14 -2247.26,-76.81 -3811.65,1424.09 -3811.65,1424.09l0 -2476.23 7027.33 0z"/>
   <path class="fil1" d="M6555.04 170.72l-0.02 0 0 0.02c-27.85,26.57 -57.47,52.74 -89.02,78.42l-0.05 0 0 0.05c-63.69,51.83 -135.33,101.65 -216.5,148.67l-0.04 0 0 0.03c-1.88,1.08 -3.79,2.16 -5.67,3.24l-0.05 0 0 0.03c-10.99,6.31 -22.17,12.56 -33.5,18.76 -30.05,16.46 -61.31,32.55 -93.92,48.22l-0.05 0 0 0.02c-9.13,4.39 -18.38,8.73 -27.71,13.05l-0.08 0 0 0.03c-13.66,6.32 -27.5,12.59 -41.62,18.76l-0.05 0 0 0.03c-1.87,0.81 -3.8,1.61 -5.68,2.43l-0.04 0 0 0.01c-9.45,4.11 -18.93,8.2 -28.59,12.24l-0.01 0 0 0.01c-21.25,8.88 -43.1,17.58 -65.37,26.14 -3.53,1.36 -6.97,2.74 -10.53,4.09l-0.09 0 0 0.03c-12.33,4.68 -24.84,9.29 -37.49,13.86l-0.1 0 0 0.03c-13.71,4.96 -27.59,9.85 -41.67,14.68l-0.01 0 -2.33 0.81 -0.12 0 0 0.04 -2.32 0.78 -0.13 0 0 0.04 -2.33 0.78 -0.12 0 0 0.04 -2.33 0.77 -0.12 0 0 0.04c-9.7,3.29 -19.48,6.55 -29.36,9.77l-0.06 0 0 0.02 -2.39 0.8 -0.06 0 0 0.01 -2.4 0.8 -0.05 0 0 0.02c-5.09,1.65 -10.33,3.25 -15.47,4.89l-0.05 0 0 0.01c-9.45,3.01 -18.86,6.03 -28.48,8.97l-0.13 0 0 0.04c-2.66,0.82 -5.41,1.6 -8.08,2.42l-0.09 0 0 0.02c-2.68,0.82 -5.42,1.62 -8.12,2.43l-0.05 0 0 0.01 -8.16 2.44 -0.01 0 0 0c-15.82,4.71 -31.85,9.34 -48.11,13.89l-0.1 0 0 0.03c-1.9,0.53 -3.78,1.07 -5.69,1.6l-0.03 0 0 0.01c-12.91,3.59 -26,7.12 -39.2,10.62l-0.02 0 0 0c-4.1,1.09 -8.12,2.19 -12.24,3.27l-0.02 0 0 0c-1.03,0.27 -2.02,0.55 -3.05,0.81l-0.22 0 0 0.06c-19.24,5 -38.84,9.86 -58.69,14.65l-0.14 0 0 0.04c-13.69,3.3 -27.45,6.57 -41.42,9.77l-0.25 0 0 0.05c-2.34,0.54 -4.76,1.05 -7.11,1.58l-0.25 0 0 0.06c-14.55,3.3 -29.21,6.56 -44.08,9.75l-0.04 0 0 0.01c-1.28,0.27 -2.61,0.53 -3.89,0.8l-0.2 0 0 0.05c-5.12,1.09 -10.35,2.14 -15.51,3.22l-0.02 0 0 0.01c-21.4,4.47 -43.11,8.83 -65.17,13.07l-0.2 0 0 0.04 -4 0.78 -0.08 0 0 0.01c-14.53,2.78 -29.25,5.48 -44.07,8.15l-0.06 0 0 0.02c-2.99,0.54 -5.95,1.08 -8.95,1.62l-0.04 0 0 0.01c-3.01,0.53 -5.94,1.09 -8.96,1.62l-0.02 0 0 0.01c-1.52,0.26 -3.01,0.54 -4.53,0.81l-0.38 0 0 0.07c-12.64,2.21 -25.51,4.33 -38.36,6.47l-0.04 0 0 0 -4.81 0.81 -0.09 0 0 0.02c-1.6,0.26 -3.16,0.54 -4.76,0.8l-0.15 0 0 0.03c-1.58,0.26 -3.11,0.53 -4.7,0.79l-0.2 0 0 0.03c-5.06,0.83 -10.26,1.61 -15.36,2.42l-0.17 0 0 0.03c-12.07,1.92 -24.17,3.83 -36.43,5.69l-0.34 0 0 0.05c-1.64,0.25 -3.23,0.52 -4.88,0.77l-0.02 0 0 0c-1.85,0.28 -3.74,0.54 -5.59,0.81l-0.13 0 0 0.02c-1.83,0.28 -3.71,0.53 -5.54,0.8l-0.18 0 0 0.03 -5.49 0.79 -0.23 0 0 0.03c-15.02,2.21 -30.09,4.4 -45.39,6.51l-0.37 0 0 0.05c-3.94,0.54 -7.98,1.04 -11.94,1.58l-0.31 0 0 0.04c-3.99,0.54 -8.02,1.06 -12.03,1.59l-0.23 0 0 0.03c-14.58,1.94 -29.23,3.85 -44.06,5.69l-0.07 0 0 0.01c-6.68,0.83 -13.43,1.63 -20.16,2.45l-0.26 0 0 0.03 -6.49 0.78 -0.05 0 0 0.01c-6.75,0.81 -13.37,1.66 -20.17,2.44l-0.26 0 0 0.03c-17.02,1.97 -34.29,3.85 -51.63,5.69l-0.67 0 0 0.08c-2.27,0.24 -4.48,0.5 -6.75,0.74l-0.6 0 0 0.07 -7.33 0.75 -0.03 0 0 0c-16.26,1.69 -32.7,3.32 -49.24,4.9l-0.6 0 0 0.06c-2.55,0.25 -5.04,0.51 -7.6,0.76l-0.57 0 0 0.06c-2.81,0.26 -5.7,0.49 -8.52,0.76l-0.47 0 0 0.04c-2.88,0.26 -5.82,0.51 -8.71,0.77l-0.28 0 0 0.03c-12.07,1.1 -24.17,2.19 -36.39,3.24l-0.38 0 0 0.04c-2.95,0.25 -5.83,0.53 -8.79,0.78l-1.02 0 0 0.09c-3.02,0.25 -6.12,0.48 -9.15,0.73l-0.65 0 0 0.05c-3.2,0.26 -6.46,0.5 -9.67,0.76l-0.14 0 0 0.01c-17.29,1.41 -34.64,2.79 -52.24,4.08l-0.87 0 0 0.06c-3.62,0.26 -7.32,0.5 -10.95,0.76l-0.49 0 0 0.03c-3.76,0.27 -7.57,0.52 -11.34,0.78l-0.1 0 0 0.01c-7.83,0.55 -15.64,1.1 -23.53,1.63l-0.17 0 0 0.01c-17.24,1.14 -34.69,2.22 -52.21,3.25l-0.08 0 0 0.01c-4.55,0.27 -9.08,0.55 -13.65,0.81l-0.24 0 0 0.02c-4.52,0.26 -8.96,0.55 -13.49,0.8l-0.4 0 0 0.02c-21.03,1.17 -42.33,2.24 -63.77,3.25l-0.79 0 0 0.04c-5.51,0.26 -10.99,0.53 -16.53,0.78l-1.45 0 0 0.06c-19.22,0.86 -38.61,1.65 -58.16,2.39l-2.3 0 0 0.09c-6.98,0.26 -14.06,0.48 -21.08,0.72l-0.99 0 0 0.04c-16.44,0.57 -32.93,1.12 -49.61,1.6l-1.86 0 0 0.06c-9.93,0.28 -20.03,0.5 -30.04,0.75l-1.02 0 0 0.03c-25.79,0.64 -51.88,1.17 -78.23,1.61l-1.84 0 0 0.03c-19.03,0.31 -38.12,0.59 -57.44,0.79l-1.4 0 0 0.01c-98.76,0.99 -201.4,0.49 -308.06,-1.58l0 -0.07 -4.23 0c-11.27,-0.22 -22.8,-0.54 -34.17,-0.8l0 -0.02 -0.64 0c-21.44,-0.48 -43.02,-1.02 -64.73,-1.62l0 -0.01 -0.24 0c-23.77,-0.65 -47.72,-1.38 -71.94,-2.2 -2.65,-0.09 -5.26,-0.12 -7.9,-0.2l0 -0.05 -1.99 0c-8.35,-0.27 -16.64,-0.39 -24.98,-0.63l0 -0.19 -7.54 0c-10.29,-0.27 -20.6,-0.56 -30.86,-0.77l0 -0.04 -1.75 0c-50.69,-1.02 -100.99,-1.25 -150.95,-0.82l-3.37 0 0 0.04c-30.39,0.28 -60.64,0.8 -90.75,1.59l-3.23 0 0 0.1c-30.16,0.81 -60.19,1.86 -90.08,3.17l-3.07 0 0 0.14c-4.89,0.22 -9.78,0.45 -14.67,0.68l-0.85 0 0 0.04c-24.98,1.18 -49.87,2.52 -74.65,4.04l-2.16 0 0 0.14c-3.58,0.22 -7.16,0.45 -10.73,0.68l-1.53 0 0 0.1c-3.79,0.24 -7.58,0.47 -11.37,0.72l-0.07 0 0 0c-22.55,1.5 -45.01,3.14 -67.4,4.9l-0.42 0 0 0.04 -9.7 0.78 -1.74 0 0 0.14 -8.41 0.67 -0.58 0 0 0.05c-24.23,2.01 -48.36,4.18 -72.39,6.49l-0.34 0 0 0.03 -8.05 0.79 -0.93 0 0 0.09 -7.46 0.73 -1.53 0 0 0.15c-2.28,0.22 -4.58,0.43 -6.86,0.66l-0.5 0 0 0.05c-25.05,2.54 -49.97,5.27 -74.8,8.13l-0.37 0 0 0.04 -6.76 0.77 -0.6 0 0 0.07c-2.18,0.25 -4.38,0.49 -6.56,0.75l-0.79 0 0 0.09c-2.12,0.25 -4.25,0.47 -6.37,0.73l-0.17 0 0 0.02c-21.62,2.57 -43.1,5.33 -64.54,8.15l-0.01 0c-6.24,0.82 -12.5,1.61 -18.73,2.45l-0.07 0 0 0.01c-2.05,0.28 -4.12,0.53 -6.18,0.81l-0.35 0 0 0.04c-130.01,17.7 -256.69,39.74 -379.9,65.33l-0.07 0 0 0.01c-26.74,5.55 -53.31,11.26 -79.72,17.15l-0.36 0 0 0.08 -3.24 0.73 -0.03 0 0 0.01c-2.4,0.54 -4.79,1.09 -7.18,1.63l-0.17 0 0 0.04c-25.93,5.83 -51.7,11.8 -77.3,17.94l-0.33 0 0 0.07 -3.05 0.74 -0.22 0 0 0.05 -3.15 0.77 -0.12 0 0 0.03 -3.26 0.79 0 0 0 0c-30.74,7.42 -61.24,15.04 -91.49,22.88l-0.03 0 0 0.01c-22.7,5.87 -45.26,11.87 -67.69,17.96l-0.13 0 0 0.04 -8.87 2.41 -0.12 0 0 0.04c-22.48,6.15 -44.8,12.4 -66.99,18.76l-0.02 0 0 0 -5.67 1.63 -0.05 0 0 0.01 -5.64 1.63 -0.08 0 0 0.02 -5.61 1.61 -0.11 0 0 0.03c-27.64,8.02 -55.09,16.17 -82.29,24.48l-0.24 0 0 0.08c-54.27,16.59 -107.69,33.73 -160.15,51.4l-0.01 0 0 0.01c-80.08,26.98 -157.97,55.14 -233.68,84.16l-0.01 0 0 0.01c-25.33,9.7 -50.36,19.51 -75.17,29.4l-0.01 0 0 0.01 -4.07 1.63 -0.02 0 0 0.01 -4.04 1.62 -0.04 0 0 0.02c-23.63,9.45 -47.02,18.98 -70.18,28.58l-0.1 0 0 0.05c-20.87,8.65 -41.55,17.35 -62.04,26.1l-0.06 0 0 0.03 -5.65 2.42 -0.07 0 0 0.03 -5.65 2.42 -0.07 0 0 0.03c-21.42,9.21 -42.62,18.46 -63.61,27.76l-0.12 0 0 0.05c-45.69,20.24 -90.37,40.67 -133.99,61.23l-0.02 0 0 0.01c-132.75,62.58 -255.81,126.26 -368.52,188.75l-0.01 0 0 0c-20.23,11.22 -40.07,22.38 -59.62,33.5l-0.03 0 0 0.02c-215.38,122.5 -389.58,238.53 -517.24,330.1l0 0 0 0.01c-89.01,63.85 -155.2,115.68 -196.92,149.53l-0.01 0 0 0.01c-7.21,5.85 -13.89,11.32 -19.61,16.05l0 -2058.07 6703.26 0c-43.35,55.82 -92.24,110.83 -148.21,164.24z"/>
  </g>
 </g>
</svg>
